<svg width="64" height="64" viewBox="0 0 64 64" fill="none" xmlns="http://www.w3.org/2000/svg">
<g id="skill-icons:django" clip-path="url(#clip0_31_4934)">
<g id="Group">
<path id="Vector" d="M49 0H15C6.71573 0 0 6.71573 0 15V49C0 57.2843 6.71573 64 15 64H49C57.2843 64 64 57.2843 64 49V15C64 6.71573 57.2843 0 49 0Z" fill="#092E20"/>
<path id="Vector_2" d="M28.1723 12.75H35.326V45.8625C31.6562 46.5592 28.962 46.838 26.0357 46.838C17.3022 46.8377 12.75 42.8897 12.75 35.3177C12.75 28.0245 17.5812 23.2868 25.06 23.2868C26.2212 23.2868 27.1038 23.3793 28.1723 23.658V12.75ZM28.1723 29.4177C27.3363 29.1395 26.6395 29.0465 25.757 29.0465C22.1337 29.0465 20.043 31.2763 20.043 35.178C20.043 38.9875 22.0408 41.0778 25.7105 41.0778C26.4998 41.0778 27.1505 41.0312 28.1723 40.8923V29.4177Z" fill="white"/>
<path id="Vector_3" d="M46.7065 23.7976V40.3806C46.7065 46.0946 46.2885 48.8351 45.0343 51.2043C43.8728 53.4808 42.3398 54.9206 39.181 56.5001L32.5383 53.3411C35.697 51.8548 37.23 50.5546 38.2053 48.5563C39.2275 46.5126 39.553 44.1433 39.553 37.9188V23.7973L46.7065 23.7976ZM39.553 12.7881H46.7065V20.1276H39.553V12.7881Z" fill="white"/>
</g>
</g>
<defs>
<clipPath id="clip0_31_4934">
<rect width="64" height="64" fill="white"/>
</clipPath>
</defs>
</svg>
