<svg width="42" height="42" viewBox="0 0 42 42" fill="none" xmlns="http://www.w3.org/2000/svg">
<rect width="42" height="42" rx="21" fill="white"/>
<mask id="mask0_31_4101" style="mask-type:alpha" maskUnits="userSpaceOnUse" x="0" y="0" width="42" height="42">
<rect width="42" height="42" fill="#D9D9D9"/>
</mask>
<g mask="url(#mask0_31_4101)">
<path d="M21 20.4614C19.3107 20.4614 17.8675 19.8629 16.6705 18.6659C15.4735 17.4692 14.875 16.0261 14.875 14.3364C14.875 12.6471 15.4735 11.2039 16.6705 10.0069C17.8675 8.80994 19.3107 8.21144 21 8.21144C22.6893 8.21144 24.1325 8.80994 25.3295 10.0069C26.5265 11.2039 27.125 12.6471 27.125 14.3364C27.125 16.0261 26.5265 17.4692 25.3295 18.6659C24.1325 19.8629 22.6893 20.4614 21 20.4614ZM7.875 31.1299V29.8979C7.875 29.041 8.10775 28.2473 8.57325 27.517C9.03875 26.7867 9.66087 26.2252 10.4396 25.8326C12.1692 24.9848 13.9141 24.3488 15.6743 23.9247C17.4345 23.5006 19.2098 23.2886 21 23.2886C22.7902 23.2886 24.5655 23.5006 26.3257 23.9247C28.0859 24.3488 29.8308 24.9848 31.5604 25.8326C32.3391 26.2252 32.9613 26.7867 33.4268 27.517C33.8923 28.2473 34.125 29.041 34.125 29.8979V31.1299C34.125 31.8678 33.8664 32.4955 33.3493 33.0129C32.8322 33.53 32.2045 33.7886 31.4663 33.7886H10.5337C9.79548 33.7886 9.16781 33.53 8.65069 33.0129C8.13356 32.4955 7.875 31.8678 7.875 31.1299Z" fill="#1E1E1E"/>
</g>
</svg>
