<svg width="12" height="12" viewBox="0 0 12 12" fill="none" xmlns="http://www.w3.org/2000/svg">
<mask id="mask0_13_2629" style="mask-type:alpha" maskUnits="userSpaceOnUse" x="0" y="0" width="12" height="12">
<rect width="12" height="12" transform="matrix(-1 0 0 1 12 0)" fill="#D9D9D9"/>
</mask>
<g mask="url(#mask0_13_2629)">
<path d="M7.2249 6.00004L3.5499 9.67504C3.4249 9.80004 3.36449 9.94587 3.36865 10.1125C3.37282 10.2792 3.4374 10.425 3.5624 10.55C3.6874 10.675 3.83324 10.7375 3.9999 10.7375C4.16657 10.7375 4.3124 10.675 4.4374 10.55L8.2874 6.71254C8.3874 6.61254 8.4624 6.50004 8.5124 6.37504C8.5624 6.25004 8.5874 6.12504 8.5874 6.00004C8.5874 5.87504 8.5624 5.75004 8.5124 5.62504C8.4624 5.50004 8.3874 5.38754 8.2874 5.28754L4.4374 1.43754C4.3124 1.31254 4.16449 1.25212 3.99365 1.25629C3.82282 1.26046 3.6749 1.32504 3.5499 1.45004C3.4249 1.57504 3.3624 1.72087 3.3624 1.88754C3.3624 2.05421 3.4249 2.20004 3.5499 2.32504L7.2249 6.00004Z" fill="#B6B6B6"/>
</g>
</svg>
