<svg width="41" height="41" viewBox="0 0 41 41" fill="none" xmlns="http://www.w3.org/2000/svg">
<path d="M20.5366 8.80756C20.9818 8.80756 21.4088 8.9844 21.7235 9.29919C22.0383 9.61398 22.2152 10.0409 22.2152 10.4861V18.8788H30.6079C31.0531 18.8788 31.48 19.0557 31.7948 19.3705C32.1096 19.6853 32.2865 20.1122 32.2865 20.5574C32.2865 21.0026 32.1096 21.4295 31.7948 21.7443C31.48 22.0591 31.0531 22.2359 30.6079 22.2359H22.2152V30.6287C22.2152 31.0739 22.0383 31.5008 21.7235 31.8156C21.4088 32.1304 20.9818 32.3072 20.5366 32.3072C20.0915 32.3072 19.6645 32.1304 19.3497 31.8156C19.0349 31.5008 18.8581 31.0739 18.8581 30.6287V22.2359H10.4654C10.0202 22.2359 9.59323 22.0591 9.27844 21.7443C8.96365 21.4295 8.7868 21.0026 8.7868 20.5574C8.7868 20.1122 8.96365 19.6853 9.27844 19.3705C9.59323 19.0557 10.0202 18.8788 10.4654 18.8788H18.8581V10.4861C18.8581 10.0409 19.0349 9.61398 19.3497 9.29919C19.6645 8.9844 20.0915 8.80756 20.5366 8.80756Z" fill="white"/>
</svg>
