<svg width="64" height="64" viewBox="0 0 64 64" fill="none" xmlns="http://www.w3.org/2000/svg">
<g id="skill-icons:nestjs-dark" clip-path="url(#clip0_31_4811)">
<g id="Group">
<path id="Vector" d="M49 0H15C6.71573 0 0 6.71573 0 15V49C0 57.2843 6.71573 64 15 64H49C57.2843 64 64 57.2843 64 49V15C64 6.71573 57.2843 0 49 0Z" fill="#242938"/>
<path id="Vector_2" d="M36.682 4.5C36.293 4.5 35.9318 4.5855 35.5983 4.69975C36.307 5.1845 36.696 5.82625 36.8905 6.5535C36.9045 6.65325 36.9322 6.7245 36.946 6.82425C36.96 6.91 36.974 6.9955 36.974 7.081C37.0295 8.336 36.6543 8.49275 36.3903 9.23425C35.9873 10.1898 36.0985 11.2162 36.5848 12.0435C36.6265 12.1432 36.682 12.2573 36.7515 12.3573C36.2235 8.7495 39.1555 8.2075 39.6975 7.081C39.739 6.097 38.947 5.441 38.3218 4.98475C37.7243 4.614 37.1823 4.5 36.682 4.5ZM41.101 5.31275C41.0452 5.64075 41.087 5.55525 41.0732 5.72625C41.0592 5.8405 41.0592 5.983 41.0452 6.097C41.0191 6.21286 40.9867 6.3272 40.948 6.4395C40.9203 6.5535 40.8785 6.6675 40.837 6.7815C40.7812 6.89575 40.7397 6.9955 40.684 7.1095C40.6425 7.1665 40.6145 7.2235 40.573 7.28075L40.4895 7.409C40.42 7.509 40.3505 7.60875 40.281 7.694C40.1978 7.77975 40.1283 7.8795 40.031 7.95075V7.96525C39.9475 8.0365 39.8643 8.122 39.767 8.19325C39.4752 8.4215 39.1418 8.5925 38.836 8.8065C38.7387 8.87775 38.6415 8.93475 38.558 9.02025C38.4607 9.09175 38.3775 9.16275 38.294 9.2485C38.1967 9.334 38.1272 9.4195 38.044 9.5195C37.9745 9.605 37.891 9.70475 37.8355 9.8045C37.766 9.9045 37.6965 10.0045 37.641 10.104C37.5852 10.2183 37.5438 10.318 37.488 10.432C37.4465 10.5463 37.4047 10.646 37.377 10.76C37.3352 10.8885 37.3075 11.0025 37.2798 11.1165C37.2658 11.1735 37.2658 11.245 37.2518 11.302C37.238 11.359 37.238 11.416 37.224 11.473C37.224 11.587 37.2103 11.7155 37.2103 11.8295C37.2103 11.915 37.2103 12.0008 37.224 12.0863C37.224 12.2003 37.238 12.3142 37.2658 12.4427C37.2798 12.5568 37.3075 12.6707 37.3353 12.785C37.377 12.899 37.4047 13.013 37.4465 13.1272C37.4742 13.1985 37.516 13.2697 37.5438 13.3267L34.3478 12.0577C33.814 11.9019 33.2765 11.7593 32.7357 11.63L31.8603 11.416C31.0243 11.245 30.1802 11.1165 29.3312 11.031C29.3035 11.031 29.2897 11.0168 29.2617 11.0168C28.4354 10.9313 27.6052 10.8885 26.7745 10.8883C26.163 10.8883 25.5518 10.9167 24.9543 10.9598C24.1068 11.0168 23.259 11.1308 22.4112 11.2735C22.2027 11.302 21.9945 11.3447 21.786 11.3875C21.3552 11.473 20.9385 11.5727 20.5352 11.6725L19.9102 11.8438C19.7015 11.9292 19.507 12.0293 19.3127 12.1147L18.854 12.3285C18.8263 12.3427 18.7985 12.3428 18.7845 12.357C18.6455 12.4285 18.5205 12.4855 18.3955 12.5568C18.362 12.5687 18.3294 12.583 18.298 12.5995C18.1455 12.6707 17.9925 12.7563 17.8675 12.8278C17.77 12.8702 17.6728 12.9275 17.5895 12.9703C17.5478 12.9987 17.492 13.0273 17.4645 13.0415C17.3395 13.113 17.2145 13.184 17.103 13.2555C16.978 13.3267 16.8668 13.3979 16.7695 13.4692C16.6723 13.5407 16.575 13.5977 16.4918 13.669C16.4778 13.6832 16.464 13.6833 16.45 13.6975C16.3668 13.7545 16.2695 13.8258 16.186 13.8973L16.1583 13.9257L15.9497 14.0968C15.9222 14.111 15.8942 14.1395 15.8665 14.1538C15.797 14.2108 15.7275 14.2822 15.658 14.3392C15.644 14.3677 15.6163 14.3818 15.6025 14.3962C15.519 14.4817 15.4358 14.553 15.3525 14.6388C15.3383 14.6388 15.3383 14.653 15.3245 14.6672C15.241 14.7385 15.1578 14.824 15.0745 14.9097C15.0605 14.9237 15.0605 14.938 15.0465 14.938C14.977 15.0092 14.9078 15.0805 14.8383 15.1663C14.8105 15.1947 14.7688 15.2233 14.7408 15.2517C14.6715 15.3372 14.5883 15.423 14.5048 15.5085C14.4908 15.537 14.463 15.5513 14.449 15.5798C14.338 15.6938 14.2405 15.808 14.1295 15.922L14.0878 15.9648C13.8653 16.2073 13.6292 16.4497 13.379 16.6635C13.129 16.8917 12.865 17.1055 12.601 17.291C12.3318 17.4846 12.0536 17.6654 11.7673 17.8328C11.4838 17.992 11.1915 18.1348 10.8918 18.2605C10.5965 18.3895 10.2951 18.5038 9.9885 18.603C9.405 18.7313 8.8075 18.9735 8.2935 19.0163C8.182 19.0163 8.057 19.0448 7.946 19.0592C7.821 19.0877 7.70975 19.1163 7.5985 19.1448L7.265 19.273C7.15375 19.3158 7.0425 19.373 6.9315 19.43C6.834 19.5013 6.723 19.5582 6.62575 19.6295C6.52669 19.7026 6.43379 19.7837 6.348 19.872C6.2505 19.9432 6.15325 20.043 6.07 20.1285C5.9865 20.2285 5.90325 20.314 5.83375 20.4137C5.76425 20.528 5.681 20.6278 5.62525 20.7418C5.55575 20.8418 5.48625 20.9557 5.43075 21.0697C5.37525 21.198 5.3195 21.3123 5.278 21.4405C5.23625 21.5545 5.1945 21.683 5.153 21.8113C5.125 21.9253 5.09725 22.0395 5.0835 22.1535C5.0835 22.1677 5.0695 22.182 5.0695 22.1963C5.04175 22.3248 5.04175 22.4957 5.02775 22.5812C5.01375 22.6812 5 22.7668 5 22.8665C5 22.9235 5 22.9948 5.014 23.052C5.02775 23.1518 5.0415 23.2372 5.0695 23.3228C5.09725 23.4085 5.12525 23.494 5.167 23.5795V23.5938C5.2085 23.6793 5.264 23.7647 5.3195 23.8505C5.37525 23.936 5.43075 24.0215 5.50025 24.107C5.56975 24.1785 5.65325 24.264 5.7365 24.3353C5.81768 24.4189 5.90602 24.4953 6.0005 24.5635C6.334 24.8627 6.4175 24.9627 6.848 25.1908C6.91775 25.2337 6.987 25.2623 7.0705 25.305C7.0845 25.305 7.09825 25.3193 7.11225 25.3193C7.11225 25.3477 7.11225 25.362 7.126 25.3905C7.14 25.5045 7.16775 25.6187 7.1955 25.7327C7.22325 25.861 7.265 25.9753 7.30675 26.075C7.3485 26.1605 7.37625 26.246 7.418 26.3318C7.43175 26.3603 7.4455 26.3888 7.4595 26.403C7.51525 26.517 7.57075 26.6167 7.62625 26.7167L7.83475 27.0163C7.90425 27.1018 7.98775 27.2015 8.071 27.287C8.1545 27.3728 8.23775 27.444 8.335 27.5295C8.335 27.5295 8.349 27.5438 8.36275 27.5438C8.44625 27.615 8.5295 27.6865 8.61275 27.7435C8.71025 27.8148 8.8075 27.8717 8.91875 27.9287C9.02094 27.9894 9.12777 28.0419 9.23825 28.0858C9.3215 28.1285 9.41875 28.157 9.51625 28.1855C9.53 28.1997 9.54375 28.1998 9.57175 28.214C9.62725 28.2283 9.69675 28.2425 9.7525 28.2568C9.71075 29.0268 9.69675 29.754 9.808 30.0107C9.933 30.296 10.5445 29.426 11.156 28.4277C11.0725 29.4117 11.017 30.5667 11.156 30.909C11.3085 31.2655 12.1425 30.1532 12.865 28.927C22.717 26.5882 31.7075 33.5758 32.6525 43.4435C32.4718 41.9033 30.6237 41.0477 29.776 41.2617C29.3592 42.3167 28.6505 43.6715 27.511 44.5127C27.6085 43.5717 27.5667 42.602 27.3722 41.661C27.0665 42.9727 26.469 44.1992 25.649 45.2542C24.329 45.3542 23.009 44.6982 22.314 43.7142C22.2585 43.6715 22.2447 43.586 22.203 43.529C22.1612 43.429 22.1195 43.3293 22.0917 43.2295C22.0511 43.1337 22.0231 43.033 22.0085 42.93C21.9945 42.8302 21.9945 42.7305 21.9945 42.6162V42.4025C22.0085 42.3025 22.0362 42.2028 22.064 42.103C22.0915 42.0033 22.1195 41.9033 22.1612 41.8035C22.2167 41.7038 22.2585 41.604 22.328 41.504C22.5642 40.8195 22.5642 40.2635 22.1335 39.9355C22.0502 39.8797 21.9618 39.832 21.8695 39.793C21.8137 39.7785 21.7445 39.75 21.6887 39.7357C21.647 39.7215 21.6192 39.7073 21.5777 39.693C21.4802 39.6645 21.383 39.636 21.2857 39.6217C21.1911 39.5935 21.0928 39.5791 20.994 39.579C20.8929 39.5625 20.7907 39.553 20.6882 39.5505C20.6187 39.5505 20.5492 39.5648 20.4797 39.5648C20.3687 39.5648 20.2715 39.579 20.1742 39.6075C20.0767 39.6217 19.9795 39.636 19.8822 39.6645C19.785 39.693 19.6877 39.7217 19.5905 39.7645C19.4932 39.8073 19.41 39.85 19.3127 39.8927C19.2292 39.9355 19.1458 39.9925 19.0485 40.0353C15.811 42.2028 17.7425 47.2793 19.9517 48.748C19.118 48.905 18.2705 49.0902 18.0343 49.2757L18.0065 49.3042C18.604 49.675 19.2292 49.9888 19.8825 50.2595C20.6267 50.5072 21.3773 50.7355 22.1335 50.944V50.9582C23.2839 51.2006 24.4618 51.2869 25.6353 51.215C31.791 50.773 36.835 45.9675 37.7523 39.636C37.78 39.7645 37.8078 39.8785 37.8355 40.0067C37.8773 40.2635 37.9328 40.5345 37.9608 40.8052V40.8198C37.9885 40.948 38.0023 41.0762 38.0163 41.1905V41.2475C38.0303 41.3758 38.044 41.5043 38.044 41.6183C38.058 41.775 38.0718 41.932 38.0718 42.0887V42.317C38.0718 42.3883 38.0858 42.4737 38.0858 42.545C38.0858 42.6307 38.0718 42.7163 38.0718 42.8018V43.0015C38.0718 43.1012 38.058 43.1868 38.058 43.2868C38.058 43.3438 38.058 43.4007 38.044 43.472C38.044 43.5718 38.03 43.6718 38.03 43.7858C38.016 43.8285 38.016 43.8713 38.016 43.914C38.0023 44.0283 37.9882 44.128 37.9745 44.242C37.9745 44.2848 37.9745 44.3275 37.9605 44.3705C37.9465 44.513 37.9187 44.6413 37.905 44.784V44.8125C37.8773 44.9408 37.8492 45.0835 37.8215 45.2118V45.2545L37.7383 45.6395C37.7383 45.6538 37.7243 45.6822 37.7243 45.6965C37.6982 45.8264 37.6658 45.955 37.627 46.0817V46.1245C37.5852 46.267 37.5435 46.3952 37.5158 46.5238C37.502 46.538 37.502 46.5522 37.502 46.5522L37.3768 46.98C37.3213 47.1225 37.2795 47.251 37.224 47.3935C37.1685 47.536 37.1268 47.6787 37.0713 47.807C37.0155 47.9497 36.96 48.078 36.9045 48.2205H36.8905C36.8347 48.349 36.7793 48.4915 36.7098 48.6198C36.6983 48.654 36.6843 48.6875 36.668 48.7197C36.6542 48.734 36.6543 48.7482 36.6403 48.7625C35.737 50.6305 34.4032 52.2702 32.7357 53.5537C32.6245 53.625 32.5132 53.7105 32.4022 53.7962C32.3745 53.8245 32.3328 53.839 32.305 53.8675C32.2075 53.9388 32.1103 54.01 31.9993 54.0812L32.0407 54.167H32.0547L32.6385 54.0812H32.6522C33.0135 54.0243 33.375 53.953 33.7363 53.8817C33.8396 53.8648 33.9418 53.841 34.042 53.8105C34.1112 53.796 34.167 53.782 34.2365 53.7675C34.3337 53.7533 34.431 53.7248 34.5283 53.7105C34.6115 53.682 34.695 53.6678 34.7783 53.6393C36.168 53.297 37.5157 52.8265 38.808 52.2702C36.5987 55.3647 33.639 57.8602 30.179 59.5C31.777 59.386 33.375 59.115 34.9173 58.6587C40.5173 56.9618 45.228 53.0973 48.0488 47.8925C47.479 51.1865 46.2005 54.3237 44.3107 57.0615C45.661 56.1471 46.9054 55.0854 48.021 53.896C51.1335 50.5592 53.1762 46.324 53.871 41.7752C54.3453 44.0336 54.4811 46.3499 54.274 48.6483C64.3067 34.2887 55.1077 19.4015 51.2588 15.4803C51.2448 15.4518 51.231 15.4372 51.231 15.4087C51.217 15.4232 51.217 15.4233 51.217 15.4373C51.217 15.423 51.217 15.423 51.203 15.4087C51.203 15.58 51.189 15.7512 51.1753 15.9222C51.1368 16.2418 51.0905 16.5603 51.0363 16.8775C50.9668 17.1913 50.8835 17.505 50.8 17.8188C50.7012 18.1273 50.5899 18.4317 50.4665 18.7313C50.3388 19.0265 50.1998 19.3167 50.0498 19.6012C49.8968 19.8722 49.73 20.1572 49.5495 20.414C49.3709 20.6788 49.1808 20.9357 48.9798 21.184C48.7713 21.4408 48.549 21.669 48.3268 21.897C48.1878 22.0255 48.0625 22.1395 47.9238 22.2535C47.8125 22.3535 47.7153 22.439 47.604 22.5385C47.354 22.7385 47.1037 22.9235 46.826 23.0947C46.562 23.266 46.284 23.4373 46.006 23.5798C45.717 23.7187 45.4252 23.8518 45.1307 23.979C44.8347 24.0935 44.5333 24.1934 44.2275 24.2785C43.9204 24.3632 43.6098 24.4345 43.2965 24.4923C42.9767 24.5495 42.6573 24.578 42.3515 24.6065C42.1292 24.6208 41.9068 24.635 41.6845 24.635C41.365 24.635 41.0452 24.6065 40.7395 24.5777C40.42 24.5492 40.1005 24.5065 39.7948 24.4352C39.475 24.3783 39.1695 24.2928 38.8638 24.1928H38.8498C39.1555 24.1643 39.4612 24.1357 39.767 24.0788C40.0806 24.0227 40.3913 23.9513 40.698 23.8647C41.0037 23.7797 41.3051 23.6797 41.601 23.5653C41.9068 23.4513 42.1985 23.3088 42.4765 23.166C42.7683 23.0235 43.0322 22.8667 43.3102 22.6955C43.5742 22.5103 43.8382 22.3247 44.0885 22.1252C44.3385 21.9256 44.5747 21.7117 44.797 21.4835C45.0333 21.2695 45.2417 21.0273 45.4502 20.7847C45.6535 20.5349 45.8482 20.2781 46.0337 20.0147C46.0615 19.972 46.0895 19.9147 46.1172 19.8722C46.2567 19.647 46.391 19.4187 46.5202 19.1875C46.6731 18.9045 46.8122 18.6142 46.937 18.3178C47.0625 18.019 47.1738 17.7145 47.2705 17.4053C47.3678 17.1058 47.4372 16.792 47.5067 16.4783C47.5625 16.1503 47.618 15.8365 47.6457 15.523C47.6735 15.195 47.7012 14.867 47.7012 14.553C47.7012 14.325 47.6875 14.097 47.6735 13.8687C47.6458 13.5407 47.604 13.227 47.5625 12.9132C47.5075 12.5918 47.438 12.2731 47.354 11.958C47.2567 11.6585 47.1595 11.3447 47.0482 11.0455C46.937 10.7457 46.7982 10.4465 46.6592 10.1613C46.5062 9.87625 46.3535 9.59075 46.1867 9.32C46.0095 9.05291 45.8242 8.79128 45.631 8.5355C45.4225 8.293 45.214 8.05075 44.9917 7.80825C44.8805 7.69425 44.7555 7.56575 44.6305 7.452C44.0086 6.9566 43.3641 6.49026 42.699 6.0545C42.6094 6.00125 42.5165 5.95366 42.421 5.912C41.9625 5.61225 41.5318 5.4555 41.101 5.313" fill="#E0234E"/>
</g>
</g>
<defs>
<clipPath id="clip0_31_4811">
<rect width="64" height="64" fill="white"/>
</clipPath>
</defs>
</svg>
