<svg width="64" height="64" viewBox="0 0 64 64" fill="none" xmlns="http://www.w3.org/2000/svg">
<g id="skill-icons:git" clip-path="url(#clip0_31_4909)">
<g id="Group">
<path id="Vector" d="M49 0H15C6.71573 0 0 6.71573 0 15V49C0 57.2843 6.71573 64 15 64H49C57.2843 64 64 57.2843 64 49V15C64 6.71573 57.2843 0 49 0Z" fill="#F03C2E"/>
<g id="Clip path group">
<mask id="mask0_31_4909" style="mask-type:luminance" maskUnits="userSpaceOnUse" x="7" y="7" width="50" height="50">
<g id="skillIconsGit0">
<path id="Vector_2" d="M7 7H57V57H7V7Z" fill="white"/>
</g>
</mask>
<g mask="url(#mask0_31_4909)">
<g id="Group_2">
<path id="Vector_3" d="M56.0563 29.7734L34.2265 7.94363C33.7764 7.49305 33.2027 7.18618 32.5781 7.06188C31.9535 6.93758 31.306 7.00144 30.7178 7.24538C30.3273 7.40743 29.9725 7.64468 29.6735 7.94363L25.1423 12.4749L30.8923 18.2249C32.2297 17.7561 33.761 18.0764 34.8265 19.1421C35.3338 19.6503 35.6879 20.2909 35.8485 20.9907C36.009 21.6906 35.9694 22.4215 35.7342 23.0999L41.2765 28.6421C42.6173 28.1796 44.164 28.4779 45.2342 29.5514C45.7704 30.0872 46.1355 30.7701 46.2833 31.5136C46.4311 32.2571 46.3549 33.0277 46.0645 33.7279C45.6752 34.6666 44.929 35.4123 43.9901 35.8011C43.0511 36.1899 41.9962 36.1899 41.0573 35.8011C40.5923 35.6084 40.1698 35.3261 39.814 34.9701C38.689 33.8451 38.411 32.1889 38.9798 30.8029L33.811 25.6341V39.2359C34.1862 39.4215 34.5291 39.6663 34.8265 39.9609C35.5451 40.6794 35.9488 41.654 35.9488 42.6703C35.9488 43.6865 35.5451 44.6611 34.8265 45.3796C34.1079 46.0982 33.1333 46.5019 32.1171 46.5019C31.1009 46.5019 30.1263 46.0982 29.4077 45.3796C28.8715 44.844 28.5062 44.1612 28.3582 43.4178C28.2102 42.6744 28.2861 41.9039 28.5763 41.2036C28.769 40.7387 29.0515 40.3164 29.4077 39.9609C29.778 39.5921 30.189 39.3124 30.6625 39.1249V25.3966C30.1926 25.2046 29.766 24.9205 29.4077 24.5609C28.8698 24.0235 28.504 23.338 28.3571 22.5919C28.2101 21.8458 28.2887 21.0729 28.5828 20.3716L22.911 14.7034L7.94225 29.6564C7.49163 30.1067 7.1847 30.6806 7.06032 31.3054C6.93594 31.9302 6.99969 32.5778 7.2435 33.1664C7.40564 33.5571 7.64307 33.9121 7.94225 34.2111L29.7735 56.0391C30.0725 56.3381 30.4273 56.5753 30.8178 56.7374C31.6069 57.0636 32.4931 57.0636 33.2822 56.7374C33.6727 56.5753 34.0275 56.3381 34.3265 56.0391L56.0563 34.3439C56.3555 34.0449 56.5928 33.6899 56.7548 33.2992C56.9168 32.9084 57.0002 32.4896 57.0003 32.0666C57.0002 31.6436 56.9168 31.2247 56.7549 30.834C56.5929 30.4432 56.3555 30.0881 56.0563 29.7891" fill="white"/>
</g>
</g>
</g>
</g>
</g>
<defs>
<clipPath id="clip0_31_4909">
<rect width="64" height="64" fill="white"/>
</clipPath>
</defs>
</svg>
