<svg width="64" height="64" viewBox="0 0 64 64" fill="none" xmlns="http://www.w3.org/2000/svg">
<g id="skill-icons:postgresql-dark" clip-path="url(#clip0_31_4889)">
<g id="Group">
<path id="Vector" d="M49 0H15C6.71573 0 0 6.71573 0 15V49C0 57.2843 6.71573 64 15 64H49C57.2843 64 64 57.2843 64 49V15C64 6.71573 57.2843 0 49 0Z" fill="#242938"/>
<path id="Vector_2" d="M50.87 37.172C45.79 38.2195 45.421 36.4988 45.421 36.4988C50.7875 28.5358 53.0323 18.4283 51.095 15.955C45.8148 9.20502 36.6723 12.399 36.5193 12.4818L36.47 12.4905C35.3534 12.2664 34.2181 12.1481 33.0793 12.137C30.78 12.102 29.0363 12.74 27.711 13.7438C27.711 13.7438 11.402 7.02552 12.1613 22.1938C12.323 25.421 16.7845 46.6273 22.1105 40.2113C24.0723 37.8523 25.953 35.871 25.953 35.871C26.8848 36.4915 28.0045 36.808 29.177 36.6938L29.2683 36.6165C29.2414 36.9204 29.2539 37.2264 29.3053 37.527C27.9343 39.0598 28.3385 39.3288 25.5963 39.893C22.8225 40.4643 24.4538 41.482 25.5155 41.7493C26.8058 42.0728 29.7905 42.5298 31.8085 39.7068L31.7275 40.0283C32.2655 40.459 32.6415 42.8285 32.5783 44.9765C32.515 47.1248 32.4728 48.5978 32.8948 49.7508C33.3168 50.9038 33.7385 53.495 37.342 52.739C40.3533 52.094 41.9123 50.4188 42.132 47.631C42.2868 45.648 42.6348 45.9398 42.6595 44.168L42.9408 43.3278C43.2623 40.6383 42.9933 39.7718 44.8478 40.176L45.2995 40.2165C46.6655 40.278 48.4533 39.9968 49.5008 39.5098C51.7595 38.4623 53.099 36.7113 50.8718 37.172H50.87Z" fill="#336791"/>
<path id="Vector_3" d="M36.5175 12.1489C35.955 12.3246 45.595 8.62464 51.0758 15.6259C53.0095 18.0991 50.7683 28.2066 45.4015 36.1694M32.0245 38.4459C31.884 43.4486 32.0598 48.4864 32.5485 49.6959C33.037 50.9051 34.0865 53.2994 37.6918 52.5294C40.703 51.8844 41.7998 50.6344 42.2745 47.8764L43.387 39.0576L32.0245 38.4459ZM27.704 13.3671C27.704 13.3671 11.3843 6.69463 12.1438 21.8624C12.3055 25.0896 16.7668 46.2959 22.093 39.8799C24.037 37.5366 25.795 35.7034 25.795 35.7034L27.704 13.3671Z" stroke="white" stroke-width="1.2585" stroke-linecap="round" stroke-linejoin="round"/>
<path id="Vector_4" d="M45.4033 36.166C45.4033 36.166 45.755 37.8887 50.8525 36.8375C53.0798 36.377 51.7385 38.1277 49.4815 39.1755C47.6287 40.0367 43.4733 40.2565 43.4048 39.07C43.229 36.0025 45.5915 36.9342 45.421 36.166C45.2663 35.4735 44.208 34.795 43.512 33.1005C42.902 31.6237 35.1448 20.286 45.6635 21.968C46.0503 21.889 42.9213 11.9487 33.0775 11.8045C23.2338 11.6602 23.545 23.907 23.545 23.907" stroke="white" stroke-width="1.2585" stroke-linecap="round" stroke-linejoin="bevel"/>
<path id="Vector_5" d="M29.27 37.2172C27.899 38.75 28.3032 39.019 25.5612 39.5832C22.7872 40.1545 24.4187 41.1722 25.4802 41.4395C26.7705 41.763 29.7552 42.22 31.7732 39.395C32.3885 38.5337 31.7697 37.1627 30.926 36.8147C30.5182 36.646 29.9732 36.435 29.2737 37.219L29.27 37.2172Z" stroke="white" stroke-width="1.2585" stroke-linejoin="round"/>
<path id="Vector_6" d="M29.1805 37.1907C29.0397 36.289 29.4757 35.2185 29.9415 33.9635C30.6412 32.0827 32.255 30.2017 30.9647 24.2305C30.0032 19.783 23.5467 23.304 23.5467 23.907C23.5467 24.51 23.8385 26.9657 23.4412 29.822C22.9192 33.5522 25.8142 36.7057 29.147 36.384" stroke="white" stroke-width="1.2585" stroke-linecap="round" stroke-linejoin="round"/>
<path id="Vector_7" d="M27.6443 23.8176C27.6143 24.0231 28.022 24.5733 28.5513 24.6471C29.0803 24.7211 29.532 24.2921 29.562 24.0846C29.5918 23.8771 29.184 23.6521 28.655 23.5783C28.126 23.5046 27.6705 23.6136 27.6443 23.8176Z" fill="white" stroke="white" stroke-width="0.42"/>
<path id="Vector_8" d="M43.7528 23.3974C43.7808 23.6029 43.3748 24.1529 42.8458 24.2269C42.3165 24.3006 41.8613 23.8719 41.835 23.6644C41.8085 23.4569 42.213 23.2319 42.742 23.1581C43.271 23.0844 43.7263 23.1934 43.7528 23.3974Z" fill="white" stroke="white" stroke-width="0.20925"/>
<path id="Vector_9" d="M45.6442 21.9717C45.732 23.5889 45.296 24.6874 45.2397 26.4084C45.159 28.9079 46.4317 31.7697 44.5137 34.6349" stroke="white" stroke-width="1.2585" stroke-linecap="round" stroke-linejoin="round"/>
</g>
</g>
<defs>
<clipPath id="clip0_31_4889">
<rect width="64" height="64" fill="white"/>
</clipPath>
</defs>
</svg>
