<svg width="20" height="20" viewBox="0 0 20 20" fill="none" xmlns="http://www.w3.org/2000/svg">
<g id="arrow_back_ios_new">
<mask id="mask0_39_6553" style="mask-type:alpha" maskUnits="userSpaceOnUse" x="0" y="0" width="20" height="20">
<rect id="Bounding box" width="20" height="20" transform="matrix(-1 0 0 1 20 0)" fill="#D9D9D9"/>
</mask>
<g mask="url(#mask0_39_6553)">
<path id="arrow_back_ios_new_2" d="M12.0417 10.0001L5.91667 16.1251C5.70833 16.3334 5.60764 16.5765 5.61458 16.8542C5.62153 17.132 5.72917 17.3751 5.9375 17.5834C6.14583 17.7917 6.38889 17.8959 6.66667 17.8959C6.94445 17.8959 7.1875 17.7917 7.39583 17.5834L13.8125 11.1876C13.9792 11.0209 14.1042 10.8334 14.1875 10.6251C14.2708 10.4167 14.3125 10.2084 14.3125 10.0001C14.3125 9.79173 14.2708 9.5834 14.1875 9.37506C14.1042 9.16673 13.9792 8.97923 13.8125 8.81256L7.39583 2.39589C7.1875 2.18756 6.94097 2.08687 6.65625 2.09381C6.37153 2.10076 6.125 2.20839 5.91667 2.41673C5.70833 2.62506 5.60417 2.86812 5.60417 3.14589C5.60417 3.42367 5.70833 3.66673 5.91667 3.87506L12.0417 10.0001Z" fill="white"/>
</g>
</g>
</svg>
