<svg width="38" height="38" viewBox="0 0 38 38" fill="none" xmlns="http://www.w3.org/2000/svg">
<rect width="38" height="38" rx="19" fill="#F1EEFF"/>
<path d="M19.6268 10.345L19.6872 10.3134L19.7369 10.2668C20.2157 9.81802 21 10.1578 21 10.814V27.184C21 27.8399 20.2167 28.1803 19.7367 27.731L19.687 27.6844L19.6266 27.6529L12.7462 24.0565C12.3365 23.6966 11.8092 23.4972 11.2622 23.497H11.262H10.25C9.52065 23.497 8.82118 23.2073 8.30546 22.6915C7.78973 22.1758 7.5 21.4763 7.5 20.747V17.255C7.5 16.5256 7.78973 15.8262 8.30546 15.3104C8.82118 14.7947 9.52065 14.505 10.25 14.505H11.261C11.8093 14.505 12.3369 14.3045 12.7461 13.9455L19.6268 10.345Z" fill="#7059FF" stroke="#7059FF"/>
<path d="M26 13L25 14" stroke="#7059FF" stroke-width="2" stroke-linecap="round"/>
<path d="M26 25L25 24" stroke="#7059FF" stroke-width="2" stroke-linecap="round"/>
<path d="M27 19L26 19" stroke="#7059FF" stroke-width="2" stroke-linecap="round"/>
</svg>
