<svg width="64" height="64" viewBox="0 0 64 64" fill="none" xmlns="http://www.w3.org/2000/svg">
<g id="skill-icons:react-dark" clip-path="url(#clip0_31_4832)">
<g id="Group">
<path id="Vector" d="M49 0H15C6.71573 0 0 6.71573 0 15V49C0 57.2843 6.71573 64 15 64H49C57.2843 64 64 57.2843 64 49V15C64 6.71573 57.2843 0 49 0Z" fill="#242938"/>
<path id="Vector_2" d="M32.0002 36.7377C34.5762 36.7377 36.6642 34.6494 36.6642 32.0737C36.6642 29.4979 34.5762 27.4097 32.0002 27.4097C29.4242 27.4097 27.3362 29.4979 27.3362 32.0737C27.3362 34.6494 29.4245 36.7377 32.0002 36.7377Z" fill="#00D8FF"/>
<path id="Vector_3" d="M32.0005 22.5908C38.2625 22.5908 44.0797 23.4893 48.466 24.9996C53.7507 26.8188 57 29.5766 57 32.0738C57 34.6761 53.5565 37.6058 47.8812 39.4861C43.5907 40.9076 37.9447 41.6496 32.0005 41.6496C25.906 41.6496 20.1347 40.9531 15.7957 39.4703C10.3062 37.5941 7 34.6266 7 32.0738C7 29.5968 10.1025 26.8603 15.313 25.0438C19.7155 23.5088 25.6763 22.5908 31.9995 22.5908H32.0005Z" stroke="#00D8FF" stroke-width="2.22775"/>
<path id="Vector_4" d="M23.7452 27.3595C26.8737 21.935 30.558 17.3445 34.0575 14.2995C38.2735 10.6302 42.286 9.19325 44.449 10.4405C46.7032 11.7405 47.521 16.1875 46.3147 22.043C45.4035 26.4697 43.225 31.7312 40.2552 36.8807C37.2105 42.1602 33.7242 46.8117 30.2725 49.8287C25.9047 53.6467 21.682 55.0285 19.4707 53.7532C17.325 52.5167 16.5045 48.4615 17.534 43.0402C18.4037 38.4595 20.5865 32.8372 23.7442 27.3595H23.7452Z" stroke="#00D8FF" stroke-width="2.22775"/>
<path id="Vector_5" d="M23.753 36.8944C20.6158 31.4759 18.4798 25.9904 17.5883 21.4379C16.515 15.9526 17.2738 11.7589 19.435 10.5079C21.6873 9.2039 25.948 10.7164 30.4185 14.6859C33.7985 17.6869 37.2693 22.2011 40.2475 27.3456C43.301 32.6201 45.5895 37.9639 46.4798 42.4609C47.6063 48.1519 46.6945 52.5001 44.4853 53.7789C42.3418 55.0199 38.419 53.7061 34.2363 50.1066C30.7023 47.0656 26.9213 42.3669 23.753 36.8944Z" stroke="#00D8FF" stroke-width="2.22775"/>
</g>
</g>
<defs>
<clipPath id="clip0_31_4832">
<rect width="64" height="64" fill="white"/>
</clipPath>
</defs>
</svg>
