<svg width="19" height="18" viewBox="0 0 19 18" fill="none" xmlns="http://www.w3.org/2000/svg">
<path fill-rule="evenodd" clip-rule="evenodd" d="M16.628 9.16915C16.628 8.6428 16.5809 8.13625 16.4927 7.65033H9.49999V10.5221H13.4963C13.3238 11.4503 12.8008 12.2373 12.0146 12.7637V14.6265H14.4137C15.8178 13.3337 16.628 11.4305 16.628 9.16915Z" fill="#3D82F0"/>
<path fill-rule="evenodd" clip-rule="evenodd" d="M9.50015 16.4253C11.5049 16.4253 13.1854 15.7604 14.4138 14.6268L12.0147 12.7631C11.3498 13.2086 10.4992 13.4718 9.50015 13.4718C7.56636 13.4718 5.92957 12.1658 5.34547 10.4111H2.86471V12.335C4.08653 14.7613 6.59782 16.4253 9.50015 16.4253Z" fill="#31A752"/>
<path fill-rule="evenodd" clip-rule="evenodd" d="M5.34527 10.411C5.19677 9.96553 5.11262 9.48951 5.11262 9.00029C5.11262 8.51106 5.19677 8.03504 5.34527 7.58954V5.66565H2.8645C2.36208 6.66802 2.07498 7.80239 2.07498 9.00029C2.07498 10.1982 2.36208 11.3326 2.8645 12.3349L5.34527 10.411Z" fill="#F9BA00"/>
<path fill-rule="evenodd" clip-rule="evenodd" d="M9.50015 4.5285C10.59 4.5285 11.5692 4.90305 12.3381 5.63895L14.4683 3.50963C13.1821 2.31091 11.5016 1.57501 9.50015 1.57501C6.59782 1.57501 4.08653 3.23903 2.86471 5.66617L5.34547 7.58924C5.92957 5.83447 7.56636 4.5285 9.50015 4.5285Z" fill="#E64234"/>
</svg>
