<svg width="64" height="64" viewBox="0 0 64 64" fill="none" xmlns="http://www.w3.org/2000/svg">
<g id="devicon:swift">
<path id="Vector" d="M63.165 17.0301C63.1647 15.7152 63.0323 14.4036 62.77 13.1151C62.5075 11.7961 62.0615 10.5204 61.445 9.32512C60.8008 8.16731 59.9999 7.10394 59.065 6.16512C58.101 5.22166 56.9812 4.45199 55.755 3.89012C54.5449 3.28018 53.2507 2.85383 51.915 2.62512C50.59 2.37012 49.135 2.37012 47.81 2.24512H15.125C14.1054 2.26178 13.0881 2.34697 12.08 2.50012C11.0795 2.61777 10.1002 2.87353 9.17 3.26012C8.905 3.38512 8.51 3.51512 8.245 3.64012C7.36512 4.1123 6.52855 4.66109 5.745 5.28012C5.48 5.53512 5.215 5.66012 4.95 5.91012C3.97545 6.81389 3.16955 7.88391 2.57 9.07012C1.91507 10.2485 1.46692 11.5304 1.245 12.8601C1.04837 14.1577 0.916543 15.4644 0.849998 16.7751V46.9701C0.850342 48.285 0.982672 49.5966 1.245 50.8851C1.50752 52.2041 1.95352 53.4799 2.57 54.6751C3.21418 55.8329 4.01507 56.8963 4.95 57.8351C5.91395 58.7786 7.03378 59.5482 8.26 60.1101C9.47011 60.7201 10.7643 61.1464 12.1 61.3751C13.425 61.6301 14.88 61.6301 16.205 61.7551H47.815C49.1921 61.7543 50.5662 61.6271 51.92 61.3751C53.2557 61.1464 54.5499 60.7201 55.76 60.1101C56.9603 59.5036 58.0736 58.7384 59.07 57.8351C60.0445 56.9313 60.8505 55.8613 61.45 54.6751C62.1049 53.4967 62.5531 52.2149 62.775 50.8851C62.9716 49.5875 63.1035 48.2809 63.17 46.9701V17.0301H63.165Z" fill="#F05138"/>
<path id="Vector_2" d="M42.5 48.25C36.945 51.315 29.31 51.63 21.625 48.485C15.6331 46.0538 10.5099 41.8783 6.92 36.5C8.58836 37.7771 10.4111 38.8388 12.345 39.66C20.28 43.21 28.21 42.965 33.795 39.66C25.845 33.83 19.095 26.25 14.065 20.06C13.0725 19.0138 12.1864 17.8715 11.42 16.65C17.5 21.955 27.17 28.65 30.61 30.545C25.6987 25.5121 21.1852 20.1059 17.11 14.375C23.8835 20.9574 31.337 26.8018 39.345 31.81C39.7 32 39.975 32.16 40.195 32.31C40.4294 31.7368 40.6314 31.1509 40.8 30.555C42.655 24.11 40.535 16.785 35.905 10.72C46.625 16.905 53 28.525 50.33 38.255C50.26 38.52 50.185 38.755 50.105 39.03L50.2 39.14C55.495 45.455 54.04 52.14 53.375 50.89C50.5 45.5 45.185 47.165 42.5 48.25Z" fill="#FEFEFE"/>
</g>
</svg>
