<svg width="64" height="64" viewBox="0 0 64 64" fill="none" xmlns="http://www.w3.org/2000/svg">
<g id="skill-icons:dart-dark" clip-path="url(#clip0_31_4900)">
<g id="Group">
<path id="Vector" d="M49 0H15C6.71573 0 0 6.71573 0 15V49C0 57.2843 6.71573 64 15 64H49C57.2843 64 64 57.2843 64 49V15C64 6.71573 57.2843 0 49 0Z" fill="#242938"/>
<path id="Vector_2" d="M21.8625 21.7513L18.9525 18.8403L18.9638 39.8658L18.9988 40.8476C19.013 41.3116 19.101 41.8318 19.2415 42.3733L42.2865 50.5013L48.052 47.9491L48.057 47.9406L21.861 21.7513H21.8625Z" fill="#00C4B3"/>
<path id="Vector_3" d="M19.2425 42.3732H19.2445C19.2418 42.3636 19.2386 42.3542 19.2348 42.345C19.2398 42.3557 19.2398 42.3662 19.2418 42.3732H19.2425ZM48.0468 47.949L42.281 50.5012L19.2398 42.3732C19.6793 44.0635 20.6545 45.9632 21.7023 46.9997L29.2185 54.479L45.9445 54.5L48.0398 47.949H48.0468Z" fill="#22D3C5"/>
<path id="Vector_4" d="M19.0315 18.8411L10.0715 32.3728C9.32775 33.1673 9.699 34.8068 10.8965 36.0148L16.0685 41.2293L19.3197 42.3753C19.1792 41.8353 19.0907 41.3206 19.0772 40.8496L19.0422 39.8681L19.0315 18.8426V18.8411Z" fill="#0075C9"/>
<path id="Vector_5" d="M42.4765 19.1117C41.9352 18.9744 41.4162 18.8879 40.9487 18.8747L39.9095 18.8367L18.9527 18.8417L48.0565 47.9412L50.6132 42.1754L42.478 19.1129L42.4765 19.1117Z" fill="#0075C9"/>
<path id="Vector_6" d="M42.4498 19.1067C42.4585 19.1096 42.4675 19.1119 42.4765 19.1137V19.111C42.4675 19.109 42.459 19.109 42.4498 19.1052V19.1067ZM47.101 21.5802C46.0428 20.5152 44.169 19.5412 42.4765 19.1137L50.6118 42.1742L48.0523 47.9397L54.2975 45.9442L54.3115 28.8217L47.1003 21.5797L47.101 21.5802Z" fill="#00A8E1"/>
<path id="Vector_7" d="M41.336 15.8807L36.133 10.7057C34.9192 9.51267 33.2797 9.13992 32.4922 9.88242L18.9612 18.8402L39.918 18.8352L40.957 18.8732C41.4247 18.8874 41.9442 18.9732 42.485 19.1102L41.3375 15.8794L41.336 15.8807Z" fill="#00C4B3"/>
</g>
</g>
<defs>
<clipPath id="clip0_31_4900">
<rect width="64" height="64" fill="white"/>
</clipPath>
</defs>
</svg>
