<svg width="64" height="64" viewBox="0 0 64 64" fill="none" xmlns="http://www.w3.org/2000/svg">
<g id="skill-icons:mongodb" clip-path="url(#clip0_31_4875)">
<g id="Group">
<path id="Vector" d="M49 0H15C6.71573 0 0 6.71573 0 15V49C0 57.2843 6.71573 64 15 64H49C57.2843 64 64 57.2843 64 49V15C64 6.71573 57.2843 0 49 0Z" fill="#023430"/>
<path id="Vector_2" d="M42.7932 26.8978C40.159 15.2775 34.669 12.184 33.2685 9.99725C32.6907 9.03407 32.1791 8.03267 31.7372 7C31.6632 8.0325 31.5272 8.6825 30.6497 9.4655C28.888 11.0363 21.4055 17.1337 20.7757 30.337C20.189 42.6475 29.8257 50.2383 31.0987 51.023C32.0777 51.5047 33.27 51.0332 33.8517 50.591C38.497 47.403 44.844 38.9035 42.7982 26.8978" fill="#10AA50"/>
<path id="Vector_3" d="M32.1363 44.4678C31.8938 47.5148 31.72 49.2853 31.104 51.0265C31.104 51.0265 31.5083 53.9273 31.7923 57H32.797C33.037 54.8362 33.4029 52.6882 33.893 50.567C32.5923 49.927 32.1863 47.1415 32.1363 44.4678Z" fill="#B8C4C2"/>
<path id="Vector_4" d="M33.8912 50.5687C32.5767 49.9615 32.1965 47.1172 32.138 44.4677C32.4629 40.097 32.5577 35.7122 32.422 31.3315C32.353 29.033 32.4545 10.042 31.8557 7.26147C32.2651 8.20333 32.7371 9.1167 33.2685 9.99547C34.669 12.184 40.1607 15.2775 42.7932 26.8977C44.844 38.883 38.5315 47.36 33.8912 50.5687Z" fill="#12924F"/>
</g>
</g>
<defs>
<clipPath id="clip0_31_4875">
<rect width="64" height="64" fill="white"/>
</clipPath>
</defs>
</svg>
