<svg width="19" height="19" viewBox="0 0 19 19" fill="none" xmlns="http://www.w3.org/2000/svg">
<path d="M18.6366 16.3821L14.346 12.254C15.379 10.9309 15.9366 9.32047 15.9347 7.66568C15.9347 3.43885 12.3606 0 7.96737 0C3.57419 0 0 3.43885 0 7.66568C0 11.8925 3.57419 15.3314 7.96737 15.3314C9.68729 15.3332 11.3611 14.7967 12.7363 13.8028L17.0269 17.9309C17.2441 18.1177 17.5273 18.2174 17.8186 18.2096C18.1098 18.2017 18.3868 18.0869 18.5928 17.8887C18.7988 17.6905 18.9181 17.424 18.9262 17.1438C18.9344 16.8637 18.8307 16.5911 18.6366 16.3821ZM2.27639 7.66568C2.27639 6.58273 2.61016 5.5241 3.2355 4.62366C3.86083 3.72322 4.74964 3.02142 5.78953 2.60699C6.82942 2.19256 7.97369 2.08413 9.07763 2.2954C10.1816 2.50668 11.1956 3.02817 11.9915 3.79393C12.7874 4.55969 13.3294 5.53533 13.549 6.59747C13.7686 7.65961 13.6559 8.76054 13.2252 9.76106C12.7944 10.7616 12.065 11.6167 11.1291 12.2184C10.1932 12.82 9.09294 13.1412 7.96737 13.1412C6.45859 13.1394 5.01212 12.562 3.94524 11.5355C2.87837 10.509 2.2782 9.11734 2.27639 7.66568Z" fill="#7F7F7F"/>
</svg>
