<svg width="30" height="30" viewBox="0 0 30 30" fill="none" xmlns="http://www.w3.org/2000/svg">
<mask id="mask0_47_347" style="mask-type:alpha" maskUnits="userSpaceOnUse" x="0" y="0" width="30" height="30">
<rect width="30" height="30" fill="#D9D9D9"/>
</mask>
<g mask="url(#mask0_47_347)">
<path d="M6.25 23.25C5.89583 23.25 5.59896 23.1302 5.35938 22.8906C5.11979 22.651 5 22.3542 5 22C5 21.6458 5.11979 21.349 5.35938 21.1094C5.59896 20.8698 5.89583 20.75 6.25 20.75H7.5V12C7.5 10.2708 8.02083 8.73438 9.0625 7.39062C10.1042 6.04688 11.4583 5.16667 13.125 4.75V3.875C13.125 3.35417 13.3073 2.91146 13.6719 2.54688C14.0365 2.18229 14.4792 2 15 2C15.5208 2 15.9635 2.18229 16.3281 2.54688C16.6927 2.91146 16.875 3.35417 16.875 3.875V4.75C18.5417 5.16667 19.8958 6.04688 20.9375 7.39062C21.9792 8.73438 22.5 10.2708 22.5 12V20.75H23.75C24.1042 20.75 24.401 20.8698 24.6406 21.1094C24.8802 21.349 25 21.6458 25 22C25 22.3542 24.8802 22.651 24.6406 22.8906C24.401 23.1302 24.1042 23.25 23.75 23.25H6.25ZM15 27C14.3125 27 13.724 26.7552 13.2344 26.2656C12.7448 25.776 12.5 25.1875 12.5 24.5H17.5C17.5 25.1875 17.2552 25.776 16.7656 26.2656C16.276 26.7552 15.6875 27 15 27ZM10 20.75H20V12C20 10.625 19.5104 9.44792 18.5312 8.46875C17.5521 7.48958 16.375 7 15 7C13.625 7 12.4479 7.48958 11.4688 8.46875C10.4896 9.44792 10 10.625 10 12V20.75Z" fill="#C4C4C4"/>
<path d="M10 20.75H20V12C20 10.625 19.5104 9.44792 18.5312 8.46875C17.5521 7.48958 16.375 7 15 7C13.625 7 12.4479 7.48958 11.4688 8.46875C10.4896 9.44792 10 10.625 10 12V20.75Z" fill="#C4C4C4"/>
</g>
</svg>
