<svg width="64" height="64" viewBox="0 0 64 64" fill="none" xmlns="http://www.w3.org/2000/svg">
<g id="skill-icons:tensorflow-dark" clip-path="url(#clip0_31_4921)">
<g id="Group">
<path id="Vector" d="M49 0H15C6.71573 0 0 6.71573 0 15V49C0 57.2843 6.71573 64 15 64H49C57.2843 64 64 57.2843 64 49V15C64 6.71573 57.2843 0 49 0Z" fill="#242938"/>
<path id="Vector_2" d="M31.057 57.25L22.6558 52.2225V22.5775L10 30.1147L10.0308 18.8862L31.057 6.5V57.25ZM32.946 6.5V57.25L41.3483 52.2225V37.9453L47.6908 41.7238L47.653 31.9583L41.3483 28.247V22.5775L54 30.1147L53.9695 18.8862L32.946 6.5Z" fill="#FF6F00"/>
</g>
</g>
<defs>
<clipPath id="clip0_31_4921">
<rect width="64" height="64" fill="white"/>
</clipPath>
</defs>
</svg>
