<svg width="64" height="64" viewBox="0 0 64 64" fill="none" xmlns="http://www.w3.org/2000/svg">
<g id="skill-icons:nextjs-dark" clip-path="url(#clip0_31_4839)">
<g id="Group">
<path id="Vector" d="M49 0H15C6.71573 0 0 6.71573 0 15V49C0 57.2843 6.71573 64 15 64H49C57.2843 64 64 57.2843 64 49V15C64 6.71573 57.2843 0 49 0Z" fill="#242938"/>
<path id="Vector_2" d="M30.3627 7.01343C30.2552 7.02318 29.913 7.05743 29.605 7.08168C22.5035 7.72193 15.8515 11.5539 11.6382 17.4434C9.29249 20.7182 7.79174 24.4327 7.22499 28.3674C7.02474 29.7409 7.00024 30.1467 7.00024 32.0087C7.00024 33.8709 7.02474 34.2767 7.22524 35.6499C8.58374 45.0389 15.2652 52.9277 24.3267 55.8504C25.9495 56.3734 27.66 56.7302 29.6052 56.9452C30.363 57.0282 33.6375 57.0282 34.3952 56.9452C37.753 56.5737 40.5975 55.7429 43.403 54.3107C43.833 54.0909 43.9162 54.0322 43.8575 53.9834C43.8185 53.9539 41.9855 51.4954 39.7862 48.5239L35.7882 43.1232L30.7782 35.7087C28.0217 31.6324 25.754 28.2989 25.7342 28.2989C25.7147 28.2942 25.6952 31.5884 25.6855 35.6109C25.6707 42.6539 25.666 42.9374 25.578 43.1034C25.451 43.3429 25.3532 43.4407 25.1477 43.5484C24.9915 43.6264 24.8545 43.6412 24.1165 43.6412H23.271L23.046 43.4994C22.9067 43.4122 22.7935 43.2889 22.7185 43.1427L22.616 42.9227L22.626 33.1232L22.6405 23.3187L22.792 23.1279C22.8702 23.0254 23.0365 22.8934 23.1537 22.8299C23.354 22.7322 23.4322 22.7224 24.2777 22.7224C25.275 22.7224 25.441 22.7614 25.7002 23.0449C25.7735 23.1232 28.486 27.2092 31.7315 32.1309C35.0172 37.1127 38.3048 42.0931 41.5945 47.0722L45.5535 53.0694L45.754 52.9374C47.528 51.7839 49.405 50.1417 50.8907 48.4309C54.053 44.7994 56.0912 40.3714 56.7755 35.6499C56.9757 34.2767 57.0002 33.8709 57.0002 32.0087C57.0002 30.1464 56.9757 29.7409 56.7755 28.3674C55.4167 18.9784 48.7352 11.0899 39.6737 8.16718C38.0755 7.64893 36.3747 7.29218 34.4685 7.07718C33.9992 7.02818 30.7685 6.97468 30.363 7.01368M40.5975 22.1359C40.832 22.2532 41.0227 22.4779 41.0912 22.7124C41.1302 22.8397 41.14 25.5572 41.1302 31.6812L41.1155 40.4692L39.5662 38.0937L38.012 35.7184V29.3304C38.012 25.2004 38.0315 22.8787 38.0607 22.7662C38.139 22.4927 38.31 22.2777 38.5447 22.1504C38.745 22.0479 38.8185 22.0379 39.5857 22.0379C40.3092 22.0379 40.4362 22.0479 40.5975 22.1359Z" fill="white"/>
</g>
</g>
<defs>
<clipPath id="clip0_31_4839">
<rect width="64" height="64" fill="white"/>
</clipPath>
</defs>
</svg>
