<svg width="19" height="18" viewBox="0 0 19 18" fill="none" xmlns="http://www.w3.org/2000/svg">
<path d="M7.07149 16.7417C8.04048 16.7417 8.46548 16.0871 9.67247 16.0871C10.8795 16.0871 11.1685 16.7168 12.2395 16.7168C13.3105 16.7168 13.999 15.7392 14.6705 14.7781C15.4185 13.6762 15.7245 12.5991 15.75 12.5494C15.682 12.5328 13.659 11.696 13.659 9.36793C13.659 7.34637 15.257 6.43501 15.342 6.36873C14.288 4.84428 12.6815 4.81114 12.248 4.81114C11.0665 4.81114 10.0975 5.53194 9.48547 5.53194C8.83098 5.53194 7.96398 4.85256 6.93548 4.85256C4.98049 4.85256 3 6.47644 3 9.53363C3 11.4309 3.7395 13.4442 4.64049 14.745C5.41399 15.8469 6.09399 16.7499 7.07149 16.7499V16.7417ZM9.56197 4.62887C10.2675 4.62887 11.16 4.14833 11.687 3.51038C12.163 2.93042 12.5115 2.11849 12.5115 1.30655C12.5115 1.19884 12.503 1.08285 12.4775 1C11.687 1.03314 10.7435 1.53025 10.174 2.20134C9.72347 2.71501 9.31548 3.51038 9.31548 4.3306C9.31548 4.44659 9.33248 4.57087 9.34947 4.6123C9.40048 4.62058 9.47697 4.62887 9.56197 4.62887Z" fill="black"/>
</svg>
