<svg width="64" height="64" viewBox="0 0 64 64" fill="none" xmlns="http://www.w3.org/2000/svg">
<g id="skill-icons:pytorch-dark" clip-path="url(#clip0_31_4822)">
<g id="Group">
<path id="Vector" d="M49 0H15C6.71573 0 0 6.71573 0 15V49C0 57.2843 6.71573 64 15 64H49C57.2843 64 64 57.2843 64 49V15C64 6.71573 57.2843 0 49 0Z" fill="#242938"/>
<path id="Vector_2" d="M45.2438 22.6038L41.8918 25.956C47.377 31.4412 47.377 40.2787 41.8918 45.6625C36.4062 51.1477 27.5688 51.1477 22.185 45.6625C16.7 40.1772 16.7 31.3397 22.185 25.956L30.8703 17.271L32.0892 16.052V9.5L18.9853 22.6038C11.6715 29.9175 11.6715 41.701 18.9853 49.0148C26.299 56.3285 38.0825 56.3285 45.2438 49.0148C52.5575 41.65 52.5575 29.9175 45.2438 22.6038Z" fill="#EE4C2C"/>
<path id="Vector_3" d="M38.6925 21.7925C40.039 21.7925 41.1305 20.7012 41.1305 19.3547C41.1305 18.0082 40.039 16.9167 38.6925 16.9167C37.3463 16.9167 36.2548 18.0082 36.2548 19.3547C36.2548 20.7012 37.3463 21.7925 38.6925 21.7925Z" fill="#EE4C2C"/>
</g>
</g>
<defs>
<clipPath id="clip0_31_4822">
<rect width="64" height="64" fill="white"/>
</clipPath>
</defs>
</svg>
