<svg width="19" height="18" viewBox="0 0 19 18" fill="none" xmlns="http://www.w3.org/2000/svg">
<path d="M2.49999 16C2.01874 16 1.60691 15.8288 1.26449 15.4864C0.922076 15.144 0.750576 14.7318 0.749992 14.25V3.75C0.749992 3.26875 0.921492 2.85692 1.26449 2.5145C1.60749 2.17208 2.01933 2.00058 2.49999 2H16.5C16.9812 2 17.3934 2.1715 17.7364 2.5145C18.0794 2.8575 18.2506 3.26933 18.25 3.75V14.25C18.25 14.7312 18.0788 15.1434 17.7364 15.4864C17.3939 15.8294 16.9818 16.0006 16.5 16H2.49999ZM9.49999 9.875L2.49999 5.5V14.25H16.5V5.5L9.49999 9.875ZM9.49999 8.125L16.5 3.75H2.49999L9.49999 8.125ZM2.49999 5.5V3.75V14.25V5.5Z" fill="black"/>
</svg>
