<svg width="64" height="64" viewBox="0 0 64 64" fill="none" xmlns="http://www.w3.org/2000/svg">
<g id="skill-icons:flask-dark" clip-path="url(#clip0_31_4867)">
<g id="Group">
<path id="Vector" d="M49 0H15C6.71573 0 0 6.71573 0 15V49C0 57.2843 6.71573 64 15 64H49C57.2843 64 64 57.2843 64 49V15C64 6.71573 57.2843 0 49 0Z" fill="#242938"/>
<path id="Vector_2" d="M22.4445 48.4815C20.635 47.0583 18.7045 45.6938 17.3858 43.7723C14.6103 40.3838 12.4733 36.4606 11.0123 32.3381C10.1293 29.6571 9.82701 26.783 8.68851 24.2055C7.49776 22.3338 8.89276 20.2878 10.943 19.6928C11.8558 19.5176 13.461 18.6565 11.5235 19.2718C9.78651 20.5463 9.61851 18.115 11.3995 17.961C12.615 17.7995 13.0625 16.8043 12.647 15.9085C11.342 15.0575 15.811 14.1223 13.5625 12.8528C11.22 10.3253 16.839 9.83905 15.4525 12.709C15.1208 14.9163 19.379 12.3045 18.391 14.8533C19.3953 16.0773 22.1515 15.1318 22.083 16.8491C23.546 16.9496 24.048 18.1803 25.4213 18.2748C26.8445 18.9175 29.4245 19.424 29.9088 21.0278C28.4968 22.1458 25.2273 18.7188 25.07 21.813C25.4965 26.3843 25.388 31.0933 27.0605 35.4463C27.8515 38.0821 29.7693 40.1571 31.501 42.2098C33.1583 44.2203 35.4028 45.6358 37.6905 46.8275C39.6975 47.774 41.861 48.4018 44.0483 48.7956C44.9353 48.1171 46.5015 45.5945 47.8855 46.6583C47.951 47.8535 45.1388 49.1568 47.753 49.0246C49.2883 48.5616 50.353 50.2121 51.6173 48.7233C52.782 50.1028 56.4583 47.8418 55.6295 50.6618C54.509 51.3848 52.8745 50.9478 51.7523 51.9423C49.9015 51.018 48.4283 52.7696 46.3795 52.548C44.1043 52.9556 41.7895 53.12 39.4828 53.1236C35.6985 52.8246 31.834 52.6986 28.234 51.3811C26.206 50.7918 24.2268 49.6368 22.4445 48.4815ZM25.6405 49.8663C27.6208 50.7228 29.5573 51.6253 31.7275 51.8975C35.1708 52.3765 38.7265 53.113 42.182 52.4413C40.618 51.7351 39.0013 52.7163 37.443 51.9363C35.5745 52.3383 33.569 51.8338 31.6695 51.5853C29.509 50.6231 27.1778 49.9615 25.1548 48.7123C22.6268 47.7891 26.462 49.8965 27.1448 50.0671C28.725 50.9641 25.407 49.6073 24.9393 49.2346C23.6158 48.4921 23.447 48.6473 24.8083 49.4013C25.0823 49.5616 25.3533 49.7298 25.6405 49.8663ZM21.8723 47.2033C23.7913 47.9143 21.8638 45.854 20.9845 45.9735C20.5948 45.2978 19.496 44.8708 20.2713 44.5075C18.8768 44.9918 18.8105 42.6668 18.155 42.9991C16.68 42.5333 17.581 40.8831 15.8238 39.8698C15.6633 38.8021 14.078 37.876 13.5723 36.2655C13.349 35.441 11.7813 33.073 12.7443 35.2768C13.5643 37.3983 15.007 39.215 16.2078 41.0295C17.1403 42.7573 18.241 44.563 19.939 45.641C20.5115 46.19 21.064 47.0313 21.8723 47.2033ZM16.344 41.1338C16.411 40.8441 16.695 41.7611 16.344 41.1338V41.1338ZM24.1705 48.0555C23.5593 47.8158 24.5955 47.8653 24.1705 48.0555V48.0555ZM25.2123 48.4356C24.7365 48.7288 25.1043 47.9108 25.2123 48.4356V48.4356ZM26.516 48.9793C25.5593 48.6068 27.1368 48.3883 26.516 48.9793V48.9793ZM28.751 50.225C27.5435 50.0145 29.1283 49.6673 28.751 50.225V50.225ZM24.4595 47.2333C23.214 47.2248 25.4235 46.6096 24.4595 47.2333V47.2333ZM25.4375 47.7211C25.089 47.8688 25.4103 47.3913 25.4375 47.7211V47.7211ZM30.3265 50.7725C31.1123 51.2685 34.9158 51.8596 32.5343 50.9758C32.1358 51.0598 28.118 49.8396 30.3265 50.7725ZM22.5653 44.7278C21.3453 44.3628 22.4888 44.397 22.5653 44.7278V44.7278ZM24.8413 46.0543C23.6118 45.7355 25.4335 45.6413 24.8413 46.0543V46.0543ZM26.7555 47.2281C25.3768 46.9061 27.6055 46.9076 26.7555 47.2281V47.2281ZM21.639 43.7193C22.5615 44.4265 25.3583 43.8098 23.0515 43.2971C22.0015 42.7373 19.635 42.3543 21.248 43.6345L21.639 43.7193ZM28.0523 47.6333C26.4413 47.2596 28.4363 46.9788 28.0523 47.6333V47.6333ZM26.1035 46.0845C28.3585 46.7225 24.2073 44.6586 25.547 45.8498L25.844 45.9843L26.1035 46.0845ZM30.0105 48.3428C28.0815 48.0483 32.1463 48.3633 30.0105 48.3428V48.3428ZM20.8173 42.4836C20.2903 42.5171 20.734 42.0858 20.8173 42.4836V42.4836ZM33.623 50.3693C32.9263 50.9038 33.68 49.6508 33.623 50.3693V50.3693ZM24.462 44.7155C23.7945 44.7001 24.3328 44.3373 24.462 44.7155V44.7155ZM21.02 42.2341C19.3413 41.6938 22.246 42.1603 21.02 42.2341V42.2341ZM16.9425 39.5983C15.6083 38.5418 16.79 39.0106 16.9425 39.5983V39.5983ZM27.647 46.3918C27.4223 46.1356 27.5413 46.4478 27.647 46.3918V46.3918ZM34.3098 50.4805C33.947 50.6285 34.2885 50.0891 34.3098 50.4805V50.4805ZM27.0573 45.7828C26.0118 45.6301 27.1773 45.2785 27.0573 45.7828V45.7828ZM22.0935 42.6371C20.6323 42.0203 23.0058 42.5393 22.0935 42.6371V42.6371ZM30.49 47.8545C29.1048 47.5795 31.9115 47.2913 30.49 47.8545V47.8545ZM26.1225 44.8898C27.7608 45.1011 24.1733 43.7756 25.763 44.771L26.1225 44.8898ZM31.816 48.3905C33.3455 47.476 32.8413 50.5315 34.411 48.6485C35.9593 47.518 33.0738 50.0463 34.982 48.8503C36.362 47.9273 38.4003 49.2878 39.688 49.7315C40.614 49.686 41.514 50.5323 42.4635 50.0176C44.2908 49.5253 38.89 49.2875 40.3058 48.4143C38.6335 48.9008 37.3983 47.834 36.5755 46.7631C34.6998 46.3298 32.5313 45.371 31.5953 43.7113C31.2135 43.0881 32.1465 43.799 31.2658 42.7803C30.1355 41.7751 29.5713 40.634 28.8125 39.412C27.906 38.9285 27.8005 37.5053 27.709 39.3643C27.716 38.191 26.6145 37.4013 26.3458 37.7295C26.341 36.5998 27.5245 37.1661 26.696 36.3301C26.5178 35.1591 25.9305 33.9385 25.754 32.6163C25.4798 31.979 25.7153 30.6141 24.818 32.0568C24.491 33.5818 24.7095 30.183 25.2178 31.3038C25.8853 30.16 24.9783 30.2945 24.9413 30.4533C25.3758 29.4886 25.2163 28.1198 24.8278 28.6418C25.0593 27.619 25.1938 24.878 24.481 25.3638C24.913 24.2943 25.3003 20.47 23.425 21.928C22.665 21.9388 21.3493 22.2041 20.727 22.5133C22.6775 23.5883 20.531 22.9015 19.737 22.7308C19.6335 23.7258 18.847 23.2953 17.8645 23.305C19.4338 23.4993 17.1005 24.91 16.2003 24.362C15.031 24.9208 17.2093 26.3155 16.2235 26.7468C16.3448 27.397 14.4325 26.512 14.5828 28.0135C13.4478 27.536 14.4265 29.7945 14.9943 29.0308C16.9248 29.5533 16.3533 30.7443 16.4025 31.8758C16.0878 32.5353 14.8495 30.326 16.1265 30.4285C15.119 28.7918 15.012 29.8368 14.1748 30.5973C13.98 30.6523 16.3105 31.679 14.848 32.1868C16.1345 32.3853 16.1713 33.511 16.433 34.2235C17.2065 35.029 17.048 33.3343 17.9735 34.302C17.388 33.4398 14.872 31.8723 16.8978 32.375C16.887 31.507 16.5313 30.8073 17.152 30.8243C17.7665 29.7113 16.5083 33.5685 17.8935 32.154C18.277 31.9865 18.372 31.0396 19.0615 32.2433C20.0625 33.2283 19.423 33.9421 18.0108 33.0401C18.2633 33.8973 19.9 34.2035 19.5925 35.544C19.9185 36.7228 20.3748 36.2888 20.7723 36.2206C21.0843 37.3661 21.2613 36.5238 21.276 35.9785C22.7043 36.2843 22.3698 37.1285 22.8165 37.7183C23.8005 38.1625 21.408 34.7073 23.0975 36.6793C24.875 38.2843 23.764 38.9543 22.169 38.697C23.1785 38.6155 23.504 40.062 24.767 40.0113C25.9185 40.559 26.6983 42.6633 24.7133 41.7873C24.0248 41.1665 21.5883 40.4008 23.5783 41.5816C25.4163 42.4326 26.876 42.9418 28.6488 44.01C29.9173 44.9158 30.4653 45.953 30.9463 46.1583C29.88 46.6675 27.733 45.7518 29.3273 45.4711C28.333 45.2901 27.2145 44.7871 28.167 46.0261C28.9768 46.7023 31.0363 46.6306 31.4055 46.7071C31.0925 47.3968 30.5555 47.4515 31.4183 47.5051C30.4558 48.0181 31.7268 48.0973 31.816 48.3905ZM29.8478 42.8321C29.262 42.2196 29.1108 41.0723 29.7438 42.0705C30.0683 42.2008 30.7838 43.945 29.8478 42.8321ZM36.258 46.9038C36.2685 47.1813 36.6233 46.8801 36.258 46.9038V46.9038ZM28.923 41.3303C28.9005 40.4043 29.1348 42.0443 28.923 41.3303V41.3303ZM28.286 40.473C27.5493 39.0498 29.2145 40.876 28.286 40.473V40.473ZM20.5653 35.1443C20.7783 35.8845 20.998 35.0288 20.5653 35.1443V35.1443ZM26.71 38.4748C26.9758 37.4768 27.0223 39.3123 26.71 38.4748V38.4748ZM22.369 35.4566C22.063 34.9058 23.009 35.9731 22.369 35.4566V35.4566ZM26.0945 36.6508C25.3965 35.087 26.5885 35.7966 26.2488 36.9071L26.0945 36.6508ZM19.6698 32.3661C19.3578 31.8533 18.8418 30.348 19.0078 29.8885C19.1583 30.6368 20.5993 33.1088 19.7148 30.9125C18.7373 29.0716 20.883 31.5103 21.1038 31.9693C21.2065 32.4263 20.5008 31.8445 20.9788 32.9158C20.1068 31.6963 20.464 33.5893 19.6698 32.3661ZM17.6843 30.998C17.766 29.8053 18.1388 31.8158 17.6843 30.998V30.998ZM18.5775 31.3053C19.0035 30.4053 19.3 32.5603 18.5775 31.3053V31.3053ZM16.429 29.6433C15.6898 28.9088 15.1548 28.2318 16.4635 29.1875C16.9678 29.2073 15.3433 27.6475 16.585 28.6923C17.8908 28.9303 17.23 30.8333 16.429 29.6433ZM17.5575 29.6138C17.7855 30.0328 17.9868 29.1886 17.5575 29.6138V29.6138ZM18.252 29.8365C17.601 28.6166 19.042 30.348 18.252 29.8365V29.8365ZM16.8715 28.5173C14.7225 26.6048 19.5718 29.5173 17.2225 28.8718L16.8715 28.5173ZM23.0288 32.0948C22.0988 31.5373 22.7823 28.1693 23.0993 30.4728C24.0035 30.1803 23.0493 31.6623 23.7238 31.6486C23.6175 32.5835 23.3158 32.9198 23.0288 32.0948ZM25.306 33.4408C25.3973 32.4258 25.498 34.1348 25.306 33.4408V33.4408ZM24.9105 33.0498C24.921 33.5606 25.013 32.6163 24.9105 33.0498V33.0498ZM17.293 27.8888C15.9125 25.984 21.3055 29.8155 18.1773 28.372C17.8505 28.2865 17.4573 28.2561 17.293 27.8888ZM21.6785 30.2141C21.548 28.6103 21.9703 30.4798 21.6785 30.2141V30.2141ZM25.0083 32.35C25.0275 32.9543 25.2658 31.4363 25.0083 32.35V32.35ZM17.5045 27.1618C18.325 26.9863 20.905 28.6031 18.5358 27.6236C18.2725 27.3323 17.7113 27.4646 17.5045 27.1618ZM24.5508 30.6738C24.6383 29.0338 25.0405 29.694 24.5538 30.9086L24.5508 30.6738ZM18.1153 26.5913C18.4498 26.1008 17.2278 24.3738 18.2915 25.9718C18.751 26.337 19.622 26.5835 18.853 26.7373C20.0625 27.8043 18.5578 27.0263 18.1153 26.5913ZM24.2025 30.1616C24.4063 31.2561 24.4335 28.2933 24.2025 30.1616V30.1616ZM17.4175 24.8658C17.5523 25.206 17.6725 24.7565 17.4175 24.8658V24.8658ZM19.005 25.8108C19.4138 24.9533 19.7588 26.767 19.005 25.8108V25.8108ZM23.4835 28.302C23.4793 27.9728 23.568 28.781 23.4835 28.302V28.302ZM23.2243 27.7278C22.6025 26.1943 23.8025 28.5398 23.2243 27.7278V27.7278ZM22.8425 26.7223C22.7383 26.0885 23.197 27.5183 22.8425 26.7223V26.7223ZM23.4638 25.7125C23.037 24.9608 24.0023 22.4001 24.11 23.9883C23.66 25.2258 23.98 25.918 24.2943 24.2583C24.8743 22.9518 24.169 26.8361 23.4638 25.7125ZM24.102 21.904C24.1433 22.179 24.288 21.6758 24.102 21.904V21.904ZM23.036 42.9095C22.7833 42.6888 23.0678 43.05 23.036 42.9095V42.9095ZM25.232 44.0205C26.4535 44.3338 26.4473 43.8303 25.3433 43.6808C24.7495 43.1283 22.8758 42.5426 24.5528 43.6123C24.664 43.8936 25.0148 43.8871 25.232 44.0205ZM20.895 41.1398C21.568 41.6416 23.43 42.562 21.8538 41.3308C22.385 40.7133 20.8365 40.3848 21.3503 39.9718C20.0435 39.1723 20.3195 39.2433 21.2348 39.2686C19.6648 38.5666 21.4615 38.619 21.377 38.2595C20.7715 38.1398 18.3695 37.1918 19.7825 38.3373C18.346 37.605 19.44 38.6103 19.006 38.5041C17.5373 38.1033 20.3143 39.6225 18.7728 39.2455C19.6153 39.9133 21.041 40.9561 19.129 39.9523C18.877 40.3148 20.4973 40.8646 20.895 41.1398ZM23.1918 42.4593C21.8225 41.3598 25.9845 43.3591 23.1918 42.4593V42.4593ZM34.949 49.5818C34.5675 50.0546 34.985 49.0278 34.949 49.5818V49.5818ZM36.1575 50.0905C36.8018 49.466 36.1838 51.085 37.2253 49.9375C37.2365 49.1163 37.193 48.6311 36.0285 49.6288C35.7075 49.8068 35.5643 50.5638 36.1575 50.0905ZM16.975 38.0435C15.588 37.2695 16.777 37.2655 16.975 38.0435V38.0435ZM18.2653 38.889C16.5555 38.1698 17.7863 38.0945 18.2653 38.889V38.889ZM25.6063 43.3163C26.323 43.9528 28.8983 43.7833 26.477 43.3946C26.1183 42.8643 24.1998 42.9921 25.6063 43.3163ZM35.698 49.5485C34.629 49.9615 36.801 48.6231 35.698 49.5485V49.5485ZM37.992 51.125C37.5168 51.2553 37.999 50.828 37.992 51.125V51.125ZM37.9958 50.7093C36.812 50.7858 39.2173 49.4151 37.9958 50.7093V50.7093ZM13.8013 35.3863C12.76 33.9008 13.1538 33.233 12.15 32.0203C11.96 31.0928 10.4275 28.9878 11.3575 31.2178C12.209 32.5218 12.4623 34.541 13.8013 35.3863ZM37.6125 50.2978C36.69 49.665 39.8598 48.8453 37.6125 50.2978V50.2978ZM39.328 50.9701C38.6163 50.7678 40.4535 50.0036 39.328 50.9701V50.9701ZM16.5925 36.4016C15.7605 36.34 16.9145 35.9223 16.5925 36.4016V36.4016ZM38.9698 50.5111C40.0595 49.8086 38.7188 49.9163 38.7723 50.5758L38.9698 50.5111ZM24.1813 41.19C23.606 41.2303 24.1438 40.7155 24.1813 41.19V41.19ZM25.0953 41.7158C24.6488 41.8081 24.8048 41.1286 25.0953 41.7158V41.7158ZM40.718 50.9858C42.114 49.9788 39.8718 50.793 40.425 51.1765L40.718 50.9858ZM40.1835 50.7276C38.9828 51.1498 41.3208 49.7746 40.1835 50.7276V50.7276ZM42.9148 52.5463C41.987 52.3808 43.6783 52.035 42.9148 52.5463V52.5463ZM17.2923 36.0558C18.316 36.2853 21.3825 38.5765 19.5735 36.2143C18.6468 35.94 19.2025 33.6751 18.2575 34.076C18.8918 35.1358 18.7793 35.5868 17.4475 34.9188C15.7735 34.1016 16.5068 35.3235 16.8338 35.6605C16.388 35.7618 17.4235 36.0473 17.2923 36.0558ZM12.6298 32.3733C12.813 31.6155 10.9425 28.204 11.7465 30.664C12.0365 31.1793 12.0073 32.1558 12.6298 32.3733ZM21.1883 37.6498C20.6613 37.209 21.1633 37.5875 21.1883 37.6498V37.6498ZM22.4863 37.952C21.0515 37.626 22.4855 37.149 22.4863 37.952V37.952ZM33.733 45.042C32.885 45.0293 33.5185 44.4935 33.733 45.042V45.042ZM34.273 45.4366C33.9615 45.4958 34.1933 45.1296 34.273 45.4366V45.4366ZM38.7308 48.2443C38.1958 48.2041 39.1595 47.9276 38.7308 48.2443V48.2443ZM14.959 32.968C13.645 32.6293 16.1853 32.493 14.959 32.968V32.968ZM32.7428 44.1721C31.961 44.3688 32.7293 43.3781 32.7428 44.1721V44.1721ZM14.4745 31.8388C13.7458 31.6636 15.262 31.5728 14.4745 31.8388V31.8388ZM16.7608 32.9465C16.519 33.0453 16.7465 32.6855 16.7608 32.9465V32.9465ZM44.6485 50.0476C45.6615 49.8423 47.9698 50.563 48.343 49.779C47.1128 49.7491 44.087 48.911 43.9438 49.979L44.2133 50.0213L44.6485 50.0476ZM17.4873 33.1296C16.8598 33.0996 17.5048 32.3251 17.4873 33.1296V33.1296ZM11.4758 28.9595C10.4373 28.7275 11.2025 27.4265 11.4758 28.9595V28.9595ZM12.9093 29.3198C11.597 28.8768 12.9268 28.8275 12.9093 29.3198V29.3198ZM13.7285 29.722C13.4915 29.5303 13.543 29.9646 13.7285 29.722V29.722ZM18.8833 33.0288C18.3085 32.8638 19.1258 32.8061 18.8833 33.0288V33.0288ZM13.1825 28.8148C11.5223 28.6413 13.044 27.6571 13.1825 28.8148V28.8148ZM10.2435 26.9078C9.95701 27.1093 10.2018 26.3733 10.2435 26.9078V26.9078ZM10.6808 26.5775C10.3053 26.658 10.6093 25.944 10.6808 26.5775V26.5775ZM13.0963 28.0193C14.1175 27.618 11.2358 27.1896 12.8875 27.9436L13.0963 28.0193ZM45.4233 47.9873C44.5925 47.8021 46.077 47.3881 45.4233 47.9873V47.9873ZM49.3288 50.0118C48.669 50.1138 49.5908 49.2368 49.3288 50.0118V50.0118ZM13.3433 26.7533C12.5333 26.9021 13.4508 26.0038 13.3433 26.7533V26.7533ZM9.90676 24.4508C9.72201 23.3925 9.74725 21.5348 11.513 22.1625C9.156 22.6306 13.1445 25.0923 12.6408 23.1488C13.632 23.1973 14.5798 22.563 14.0595 23.5255C16.0123 23.3098 17.3663 21.6165 19.2525 21.8538C20.7218 21.6593 22.3283 21.5118 23.9115 20.9205C25.2133 20.8265 26.4665 19.425 25.753 18.5943C23.9778 18.4443 22.1193 18.6663 20.157 19.0563C17.9828 19.5083 16.0078 20.3671 13.8138 20.7358C11.6753 21.023 14.2438 21.527 13.6313 21.6395C12.5155 22.0265 14.962 22.2878 13.4868 22.6958C12.5755 22.5225 11.627 22.2095 12.0163 21.2493C9.96776 21.515 8.16801 22.3653 9.78626 24.4498L9.90676 24.4508ZM14.8425 21.937C15.3228 20.1676 17.4158 23.3928 15.63 22.1721C15.4165 22.0123 15.0658 21.882 14.8425 21.937ZM14.936 21.0791C15.3045 21.3686 15.6293 20.5628 14.936 21.0791V21.0791ZM15.816 21.0931C15.8788 20.279 17.831 21.524 16.138 21.3863L15.816 21.0931ZM17.0203 20.609C17.1465 21.066 17.46 20.0953 17.0203 20.609V20.609ZM17.3283 20.4028C18.0603 19.523 21.4743 19.8413 18.9755 20.317C18.3055 19.8128 17.7923 20.6143 17.328 20.4028M21.7833 19.716C21.672 17.313 23.9968 20.5698 21.7833 19.716V19.716ZM23.0475 19.709C23.5098 18.498 24.841 19.223 23.2613 19.4658C23.2958 19.5945 23.215 20.0908 23.0475 19.709ZM12.8445 26.1318C11.3785 25.398 14.2255 25.286 12.8445 26.1318V26.1318ZM13.8655 26.4153C12.8135 26.2066 14.3498 25.9006 13.8655 26.4153V26.4153ZM10.857 24.2803C9.92326 24.0498 11.646 23.6741 10.857 24.2803V24.2803ZM51.6338 49.7903C51.0308 50.107 51.6568 49.087 51.6338 49.7903V49.7903ZM47.4905 46.9626C46.958 47.0333 47.6083 46.153 47.4905 46.9626V46.9626ZM52.7733 50.0628C53.8765 50.0666 56.116 49.7203 53.7155 49.7213C53.3388 49.78 51.5208 49.7676 52.7733 50.0628ZM14.764 25.9191C15.6568 25.8578 16.161 24.934 14.5915 24.9873C12.1588 24.7355 16.7375 25.8203 14.279 25.51C13.949 25.7288 14.7448 25.9796 14.764 25.9191ZM15.5503 26.317C15.2743 26.6218 15.457 25.7438 15.5503 26.317V26.317ZM16.483 23.8298C15.947 23.7013 16.8705 23.3493 16.483 23.8298V23.8298ZM13.5138 18.8663C15.1073 18.3243 17.2863 17.715 18.0388 19.1333C17.273 18.2115 17.7298 17.3043 18.4528 18.6518C19.4755 20.0153 19.9875 18.0318 19.3223 17.5743C20.0803 18.5163 20.9423 18.9613 19.8298 17.634C21.039 16.1796 17.409 17.8243 16.584 17.8078C16.187 17.986 12.4855 18.7518 13.5138 18.8663ZM14.4475 17.0778C15.3563 16.3918 17.5908 17.4858 16.157 16.396C16.0168 16.2723 13.017 17.2223 14.4475 17.0778ZM17.7608 17.2145C18.8243 17.2418 17.302 15.7858 18.5693 16.4455C18.3613 15.7655 17.0938 15.638 16.4743 15.3665C16.1235 15.988 17.1875 17.2228 17.7608 17.2145ZM15.0285 14.207C14.3835 14.4598 15.3965 13.7083 15.0285 14.207V14.207ZM16.3828 14.531C18.0968 14.3038 15.9458 13.793 16.0373 14.5128L16.3828 14.531ZM13.8543 12.5528C12.6473 10.9773 16.1238 12.8175 14.8978 11.1678C13.8658 10.3463 12.874 12.0928 13.8543 12.5528ZM29.3423 20.8951C29.8958 19.9138 27.057 19.5726 28.9693 20.5473C29.1455 20.6061 29.1055 20.963 29.3423 20.8951Z" fill="white"/>
</g>
</g>
<defs>
<clipPath id="clip0_31_4867">
<rect width="64" height="64" fill="white"/>
</clipPath>
</defs>
</svg>
