<svg width="135" height="200" viewBox="0 0 135 200" fill="none" xmlns="http://www.w3.org/2000/svg">
<g id="Union">
<path d="M61.3026 15.0964C78.1988 10.9227 97.527 10.6256 110.556 19.9492C118.022 25.2923 121.334 33.0265 121.773 43.012C122.712 64.3975 113.46 84.4705 100.414 102.443C91.5381 114.67 80.8502 125.777 69.577 136.337C69.543 136.369 69.4971 136.409 69.4406 136.459C69.4064 136.489 69.3684 136.522 69.3268 136.558C68.5443 137.24 66.5112 139.011 65.3591 141.293C63.826 144.328 65.0434 148.033 68.0782 149.566C71.0945 151.09 74.7708 149.897 76.3207 146.901C76.3454 146.871 76.406 146.799 76.5251 146.679C76.6613 146.542 76.8311 146.384 77.0885 146.151C77.1358 146.108 77.1891 146.06 77.2469 146.008L77.2505 146.005C77.4641 145.812 77.7377 145.566 77.9931 145.327C89.537 134.513 100.852 122.802 110.377 109.679C124.203 90.6326 135.187 67.81 134.073 42.4712C133.517 29.8032 129.058 18.0458 117.72 9.93232C100.197 -2.60722 76.2888 -1.29172 58.3507 3.13941C38.0441 8.15561 13.3934 20.6072 4.37931 43.2474C-4.20968 64.82 1.9032 90.1117 8.43206 109.016C12.0846 119.591 16.8951 129.488 24.2222 138.475C26.3711 141.111 30.2491 141.505 32.8839 139.355C35.5188 137.206 35.9128 133.327 33.764 130.691C27.6051 123.137 23.402 114.643 20.0697 104.994C13.5978 86.2551 9.0333 64.8453 15.8181 47.8044C22.6028 30.7636 42.2958 19.7915 61.3026 15.0964Z" fill="#7059FF"/>
<path fill-rule="evenodd" clip-rule="evenodd" d="M99.2084 76.5174C99.45 74.5648 98.7751 72.99 98.5114 72.4099C98.1481 71.6107 97.6923 70.8919 97.2774 70.3086C96.4363 69.1262 95.3561 67.9332 94.2371 66.9118C93.1677 65.9355 91.7258 64.8054 90.1055 64.0627C89.0544 63.5808 84.8706 61.8901 81.3933 65.1246C77.9699 68.309 75.7507 72.8037 74.1893 76.553C70.1516 77.5169 65.5733 78.16 61.0496 78.1833C56.8212 78.2052 52.9 77.6851 49.5827 76.5662C49.5755 75.5888 49.5751 74.615 49.5826 73.6447C49.5926 72.3232 49.4638 69.8143 48.8947 67.293C48.6098 66.0304 48.1612 64.5209 47.4166 63.086C46.7008 61.7069 45.4217 59.8388 43.1973 58.6774C40.9286 57.4929 38.4266 57.3658 36.1759 58.1766C34.1022 58.9236 32.6136 60.3186 31.6379 61.6221C30.5183 63.118 28.8299 65.4064 28.3536 68.265C27.7995 71.5903 29.0068 74.3568 30.3308 76.5196C32.2434 79.6439 34.682 82.1436 37.4332 84.107C37.5917 88.7769 37.8364 93.365 38.0776 97.8883C38.8603 112.567 39.6066 126.563 37.2556 140.452C36.688 143.805 38.9454 146.984 42.2977 147.552C45.65 148.119 48.8277 145.861 49.3953 142.508C51.9931 127.161 51.1351 111.113 50.3267 95.9929C50.2084 93.7812 50.0912 91.5894 49.9861 89.4226C53.6826 90.2159 57.4719 90.5182 61.1132 90.4994C63.6946 90.486 66.2683 90.3111 68.7728 90.0109C64.9181 99.7731 61.5298 109.621 58.3289 119.527C57.5021 122.085 56.2665 125.642 54.9795 129.347L54.7304 130.064C53.3762 133.963 51.9879 137.973 51.0813 140.844C50.0573 144.087 51.8554 147.547 55.0975 148.571C58.3397 149.595 61.7981 147.797 62.8221 144.553C63.6646 141.885 64.9879 138.059 66.361 134.106L66.6293 133.333C67.8958 129.688 69.1742 126.008 70.0445 123.315C73.9362 111.272 78.0446 99.5166 82.8919 87.9869C83.0714 87.5601 83.251 87.1187 83.4294 86.6721C83.5525 86.629 83.6749 86.5856 83.7967 86.5419C83.8879 86.5092 83.9787 86.4764 84.0691 86.4435C84.0648 86.4451 84.0745 86.4419 84.1043 86.4323L84.108 86.431C84.1717 86.4103 84.319 86.3624 84.6002 86.2727L84.8103 86.2058C85.1419 86.1001 85.5531 85.9692 86.0067 85.8223C87.1161 85.4632 88.5476 84.9871 89.9768 84.4588C91.3611 83.9472 92.9393 83.3155 94.261 82.6273C94.8996 82.2948 95.7206 81.8261 96.4767 81.2142C96.8579 80.9057 97.3801 80.4355 97.8665 79.7905C98.3345 79.1698 99.0177 78.0584 99.2084 76.5174ZM36.4724 68.7302C36.4659 68.7188 36.4624 68.7136 36.4622 68.7139C36.462 68.7142 36.4634 68.717 36.4664 68.7222C36.4695 68.7276 36.4743 68.7356 36.481 68.7459C36.4777 68.7398 36.4748 68.7346 36.4724 68.7302Z" fill="#7059FF"/>
<path fill-rule="evenodd" clip-rule="evenodd" d="M31.1653 164.284C35.8527 163.417 40.4891 162.436 45.0675 161.298C37.2305 160.439 29.3435 159.336 21.4214 157.673C18.0938 156.975 15.962 153.711 16.66 150.382C17.3579 147.054 20.6213 144.921 23.9489 145.619C37.1306 148.385 50.2006 149.514 63.9361 150.701L63.9536 150.702C65.7715 150.859 67.6012 151.017 69.4442 151.18L69.4495 151.18C69.4673 151.181 69.5287 151.183 69.6486 151.185C69.8284 151.186 70.0452 151.184 70.3353 151.18L70.4716 151.178C70.9789 151.171 71.7156 151.161 72.396 151.19C72.7779 151.207 73.2675 151.24 73.7846 151.318C74.219 151.384 75.0975 151.541 76.0379 151.991C76.8762 152.392 79.1222 153.708 79.6664 156.679C80.1782 159.474 78.7331 161.444 78.2249 162.065C76.5889 164.062 74.5037 164.914 73.3065 165.329C73.2326 165.355 73.1586 165.38 73.0848 165.405C74.1686 165.368 75.3718 165.421 76.5298 165.683C76.9857 165.787 77.7193 165.986 78.5003 166.404C79.2143 166.786 80.7027 167.745 81.4948 169.709C82.3938 171.938 81.8216 173.96 81.1809 175.148C80.6139 176.199 79.8825 176.865 79.5155 177.174C78.7455 177.822 77.9078 178.265 77.4194 178.51C76.8412 178.801 76.2228 179.069 75.6494 179.305C74.6834 179.703 73.5792 180.114 72.6283 180.468C72.465 180.529 72.3052 180.589 72.1524 180.646C70.9768 181.085 70.2258 181.379 69.8367 181.565C67.6886 182.592 65.5532 183.607 63.4245 184.62L63.3962 184.633L63.3944 184.634C60.5385 185.992 57.6944 187.344 54.8472 188.711C56.9126 190.085 58.0229 192.637 57.4423 195.201C56.691 198.518 53.3939 200.598 50.0779 199.846C49.0657 199.617 45.658 198.784 42.5698 197.932C41.0451 197.511 39.4594 197.048 38.2525 196.626C37.7134 196.437 36.9444 196.154 36.2587 195.791L36.24 195.781C36.0091 195.66 35.0895 195.175 34.2785 194.264C33.8706 193.806 32.8233 192.509 32.6952 190.487C32.5385 188.015 33.8185 186.214 34.9729 185.27C37.1129 183.52 39.5535 182.234 41.6475 181.241C42.6676 180.757 43.6918 180.304 44.6129 179.896L45.07 179.693C37.4589 179.786 29.7529 179.43 22.4529 178.197L22.4379 178.194C22.2299 178.159 21.2786 178 20.2578 177.378C19.6892 177.031 18.6373 176.263 17.935 174.837C17.1315 173.204 17.1594 171.477 17.6452 170.084C18.0622 168.888 18.7403 168.124 19.0894 167.772C19.4765 167.381 19.8371 167.123 20.0499 166.981C20.471 166.7 20.8353 166.533 20.9858 166.466C21.4903 166.241 21.9718 166.113 22.0716 166.087L22.0842 166.083C22.4415 165.987 22.877 165.889 23.2619 165.806C24.0843 165.629 25.1967 165.409 26.296 165.197C28.2556 164.82 30.3277 164.438 30.9843 164.318L31.1653 164.284ZM69.4645 153.617C69.465 153.618 69.4559 153.622 69.4359 153.631C69.454 153.622 69.4641 153.617 69.4645 153.617ZM72.0267 167.434C72.027 167.434 72.0169 167.44 71.9947 167.452C72.0152 167.439 72.0264 167.433 72.0267 167.434Z" fill="#7059FF"/>
</g>
</svg>
