<svg width="64" height="64" viewBox="0 0 64 64" fill="none" xmlns="http://www.w3.org/2000/svg">
<g id="skill-icons:flutter-dark" clip-path="url(#clip0_31_4815)">
<g id="Group">
<path id="Vector" d="M49 0H15C6.71573 0 0 6.71573 0 15V49C0 57.2843 6.71573 64 15 64H49C57.2843 64 64 57.2843 64 49V15C64 6.71573 57.2843 0 49 0Z" fill="#242938"/>
<path id="Vector_2" d="M36.2335 9.5155L50.1772 9.5L26.7835 32.8815L20.6868 38.9442L13.75 31.999L36.2335 9.5155ZM36.1037 30.3923C36.2847 30.1532 36.6177 30.2712 36.8705 30.2405L50.1652 30.2437L38.0485 42.3488L31.0758 35.4188L36.1037 30.3923Z" fill="#44D1FD"/>
<path id="Vector_3" d="M24.1252 42.3605L31.0757 35.4187L38.0485 42.3487L38.0775 42.3795L31.0775 49.3144L24.1252 42.3605Z" fill="#1FBCFD"/>
<path id="Vector_4" d="M31.0775 49.3144L38.0775 42.3794L50.1702 54.4841C45.6152 54.4944 41.0617 54.4806 36.5085 54.4909C36.249 54.5489 36.0885 54.3116 35.9227 54.1649L31.0775 49.3144Z" fill="#08589C"/>
</g>
</g>
<defs>
<clipPath id="clip0_31_4815">
<rect width="64" height="64" fill="white"/>
</clipPath>
</defs>
</svg>
