<svg width="64" height="64" viewBox="0 0 64 64" fill="none" xmlns="http://www.w3.org/2000/svg">
<g id="skill-icons:nodejs-dark" clip-path="url(#clip0_31_4827)">
<g id="Group">
<path id="Vector" d="M49 0H15C6.71573 0 0 6.71573 0 15V49C0 57.2843 6.71573 64 15 64H49C57.2843 64 64 57.2843 64 49V15C64 6.71573 57.2843 0 49 0Z" fill="#242938"/>
<path id="Vector_2" d="M29.9695 7.77903C31.1992 7.07528 32.8007 7.07203 34.0292 7.77903C40.2097 11.2715 46.3922 14.7583 52.5717 18.2528C53.7342 18.9075 54.5115 20.201 54.4997 21.5403V42.5515C54.5085 43.9463 53.6542 45.2708 52.428 45.9105C46.2677 49.3838 40.1105 52.861 33.9512 56.3343C32.6965 57.0518 31.0627 56.9965 29.8467 56.22C28 55.1495 26.15 54.084 24.303 53.0145C23.9255 52.7895 23.5 52.6105 23.2335 52.2445C23.4692 51.927 23.8905 51.8875 24.2327 51.7488C25.0035 51.5035 25.7117 51.11 26.4197 50.7283C26.599 50.6058 26.8175 50.6528 26.9892 50.7623C28.5685 51.6678 30.134 52.5998 31.7185 53.4965C32.0565 53.6918 32.3987 53.4325 32.6877 53.2715C38.7327 49.8548 44.7852 46.4513 50.8295 43.0335C51.0535 42.9258 51.1772 42.688 51.159 42.4428C51.1632 35.5115 51.16 28.5793 51.1612 21.6478C51.1867 21.3698 51.0257 21.1138 50.774 20.9998C44.6352 17.5425 38.4992 14.0803 32.3615 10.6223C32.2552 10.5492 32.1292 10.51 32.0002 10.5098C31.8712 10.5096 31.7451 10.5483 31.6385 10.621C25.5005 14.0803 19.366 17.546 13.228 21.0028C12.9772 21.117 12.809 21.3688 12.8387 21.6478C12.84 28.5793 12.8387 35.5115 12.8387 42.4438C12.828 42.5635 12.8543 42.6837 12.914 42.788C12.9738 42.8924 13.0641 42.9759 13.1727 43.0273C14.8105 43.956 16.4505 44.8783 18.0895 45.804C19.013 46.3008 20.1465 46.5963 21.164 46.2155C22.0615 45.8935 22.6907 44.9773 22.6737 44.0243C22.6822 37.1335 22.6695 30.2418 22.68 23.3518C22.6575 23.046 22.9477 22.7933 23.2452 22.8223C24.0322 22.8168 24.8202 22.8115 25.6072 22.8243C25.9357 22.8168 26.1617 23.1463 26.1212 23.4543C26.118 30.3888 26.1297 37.3233 26.116 44.2575C26.118 46.1058 25.3587 48.1168 23.6492 49.021C21.5435 50.1118 18.9405 49.8805 16.86 48.8345C15.059 47.9355 13.34 46.8745 11.571 45.9115C10.3415 45.2753 9.4915 43.9455 9.50025 42.5518V21.5403C9.48725 20.1733 10.2957 18.8563 11.494 18.211C17.6532 14.7353 23.8115 11.2565 29.9695 7.77903Z" fill="#81CD39"/>
<path id="Vector_3" d="M35.343 22.3337C38.0292 22.1607 40.905 22.2312 43.3222 23.5547C45.194 24.5687 46.2315 26.6972 46.2645 28.7764C46.2122 29.0567 45.919 29.2114 45.6512 29.1922C44.872 29.1912 44.0922 29.2029 43.313 29.1869C42.9822 29.1997 42.7902 28.8949 42.7487 28.6027C42.5247 27.6077 41.982 26.6224 41.0457 26.1424C39.6082 25.4229 37.9417 25.4592 36.3742 25.4742C35.23 25.5347 33.9995 25.6339 33.03 26.3067C32.2857 26.8164 32.0597 27.8454 32.3252 28.6742C32.5757 29.2692 33.2625 29.4612 33.8247 29.6382C37.062 30.4849 40.4925 30.4004 43.668 31.5147C44.9827 31.9689 46.2687 32.8522 46.7187 34.2287C47.3075 36.0737 47.0495 38.2787 45.7367 39.7597C44.6722 40.9784 43.122 41.6419 41.5757 42.0022C39.5187 42.4609 37.384 42.4727 35.295 42.2689C33.3307 42.0449 31.2865 41.5289 29.7702 40.1907C28.4735 39.0647 27.8402 37.3102 27.903 35.6172C27.918 35.3312 28.2027 35.1317 28.4767 35.1552C29.2615 35.1489 30.0465 35.1467 30.8312 35.1564C31.145 35.1339 31.3772 35.4049 31.3935 35.7004C31.538 36.6482 31.8942 37.6432 32.721 38.2049C34.316 39.2342 36.3177 39.1637 38.1442 39.1924C39.6575 39.1254 41.3562 39.1052 42.591 38.1049C43.2425 37.5344 43.4355 36.5799 43.2595 35.7589C43.0687 35.0657 42.3435 34.7427 41.7207 34.5314C38.525 33.5207 35.056 33.8874 31.8912 32.7442C30.6062 32.2902 29.3637 31.4317 28.8702 30.1117C28.1815 28.2434 28.497 25.9324 29.9472 24.5017C31.3612 23.0779 33.4022 22.5297 35.343 22.3337Z" fill="#81CD39"/>
</g>
</g>
<defs>
<clipPath id="clip0_31_4827">
<rect width="64" height="64" fill="white"/>
</clipPath>
</defs>
</svg>
