<svg width="64" height="64" viewBox="0 0 64 64" fill="none" xmlns="http://www.w3.org/2000/svg">
<g id="skill-icons:mysql-dark" clip-path="url(#clip0_31_4881)">
<g id="Group">
<path id="Vector" d="M49 0H15C6.71573 0 0 6.71573 0 15V49C0 57.2843 6.71573 64 15 64H49C57.2843 64 64 57.2843 64 49V15C64 6.71573 57.2843 0 49 0Z" fill="#242938"/>
<g id="Clip path group">
<mask id="mask0_31_4881" style="mask-type:luminance" maskUnits="userSpaceOnUse" x="9" y="9" width="46" height="46">
<g id="skillIconsMysqlDark0">
<path id="Vector_2" d="M9.5 9.5H54.5V54.5H9.5V9.5Z" fill="white"/>
</g>
</mask>
<g mask="url(#mask0_31_4881)">
<g id="Group_2">
<path id="Vector_3" fill-rule="evenodd" clip-rule="evenodd" d="M50.9503 44.5525C48.5028 44.4845 46.604 44.7353 45.0128 45.4048C44.5545 45.5888 43.8193 45.5888 43.7588 46.1655C44.0038 46.4075 44.0333 46.8035 44.248 47.139C44.6148 47.7478 45.2583 48.5678 45.8393 48.9933L47.7978 50.3928C48.9913 51.122 50.3378 51.5483 51.5005 52.2783C52.174 52.7043 52.847 53.2518 53.5205 53.7085C53.8635 53.9518 54.0713 54.348 54.5 54.4993V54.4073C54.286 54.1345 54.2243 53.7393 54.011 53.4338L53.0918 52.5523C52.205 51.3663 51.1025 50.3313 49.909 49.4805C48.9295 48.8113 46.788 47.899 46.39 46.7743L46.3298 46.706C47.002 46.638 47.7978 46.4013 48.441 46.2188C49.4823 45.946 50.4303 46.006 51.5005 45.7325L52.9705 45.3065V45.0338C52.4195 44.4865 52.0218 43.7563 51.4408 43.2398C49.8803 41.9015 48.1653 40.5933 46.39 39.4985C45.4415 38.8905 44.217 38.4943 43.2073 37.9783C42.839 37.7955 42.2278 37.7043 42.0138 37.4003C41.4615 36.7323 41.1563 35.8493 40.7585 35.058L38.2493 29.766C37.6985 28.5798 37.361 27.3935 36.6888 26.2988C33.536 21.128 30.1078 17.9958 24.8438 14.9233C23.712 14.2845 22.3655 14.0098 20.9338 13.6758L18.6388 13.5533C18.1483 13.3405 17.659 12.7623 17.2305 12.4883C15.486 11.3933 10.987 9.02128 9.7005 12.1475C8.87425 14.1243 10.9253 16.0705 11.6215 17.0748C12.1428 17.7743 12.815 18.5648 13.1833 19.3558C13.389 19.8725 13.4578 20.4205 13.6725 20.968C14.1615 22.306 14.621 23.797 15.2638 25.0445C15.6068 25.6833 15.967 26.3533 16.3955 26.9308C16.6405 27.2715 17.0693 27.4175 17.1605 27.9648C16.7318 28.5735 16.7023 29.485 16.4573 30.2465C15.355 33.6835 15.7838 37.9415 17.3443 40.472C17.8348 41.232 18.9905 42.9055 20.5588 42.2663C21.936 41.7188 21.6288 39.9853 22.0265 38.4643C22.119 38.0998 22.0575 37.8563 22.2405 37.6123V37.6805L23.4958 40.2048C24.4445 41.695 26.0978 43.2465 27.4743 44.2813C28.2083 44.8288 28.79 45.7723 29.7078 46.1063V46.0143H29.6475C29.4635 45.7415 29.1878 45.6188 28.943 45.406C28.3923 44.8588 27.7803 44.1893 27.3515 43.5813C26.0668 41.8783 24.935 39.992 23.9245 38.0458C23.4343 37.103 23.0055 36.0688 22.609 35.126C22.4238 34.7608 22.4238 34.2125 22.1185 34.0313C21.6588 34.6993 20.9868 35.2788 20.6485 36.0995C20.0668 37.407 20.0065 39.0193 19.7925 40.6923C19.669 40.7228 19.7238 40.6923 19.669 40.7603C18.6908 40.5178 18.3533 39.5128 17.9865 38.662C17.0685 36.5025 16.9148 33.0353 17.7105 30.541C17.9245 29.9023 18.8438 27.8948 18.4768 27.2865C18.2918 26.7085 17.681 26.3745 17.3435 25.9178C16.9458 25.3398 16.5185 24.6103 16.2428 23.9715C15.5088 22.2673 15.1418 20.3823 14.3453 18.679C13.977 17.888 13.335 17.0665 12.8143 16.3373C12.2325 15.5158 11.5913 14.9375 11.1318 13.9648C10.9788 13.624 10.7648 13.0828 11.0095 12.7173C11.07 12.474 11.1933 12.3765 11.437 12.322C11.8345 11.981 12.968 12.4133 13.3658 12.5945C14.4975 13.0513 15.4463 13.4768 16.395 14.1148C16.8238 14.4188 17.2833 14.997 17.834 15.1498H18.4775C19.457 15.3623 20.558 15.2178 21.475 15.4905C23.0975 16.0085 24.566 16.768 25.883 17.59C29.8918 20.1145 33.198 23.7035 35.4313 27.9928C35.7983 28.6923 35.9513 29.331 36.2888 30.061C36.9323 31.552 37.728 33.0723 38.3693 34.533C39.0128 35.9625 39.6245 37.4235 40.5425 38.6095C41.002 39.2483 42.8375 39.5823 43.6635 39.917C44.276 40.1898 45.224 40.4353 45.7763 40.7693C46.816 41.408 47.8568 42.138 48.8355 42.8375C49.3245 43.2015 50.8558 43.9623 50.9468 44.569L50.9503 44.5525ZM19.7395 18.1218C19.3168 18.1182 18.8954 18.1692 18.4858 18.2738V18.342H18.546C18.791 18.8288 19.2198 19.1635 19.5255 19.5895L20.23 21.0495L20.2905 20.9815C20.719 20.6775 20.9338 20.1908 20.9338 19.4615C20.75 19.2488 20.7198 19.0353 20.5668 18.8225C20.383 18.5185 19.9853 18.3658 19.7395 18.1233V18.1218Z" fill="white"/>
</g>
</g>
</g>
</g>
</g>
<defs>
<clipPath id="clip0_31_4881">
<rect width="64" height="64" fill="white"/>
</clipPath>
</defs>
</svg>
