<svg width="74" height="22" viewBox="0 0 74 22" fill="none" xmlns="http://www.w3.org/2000/svg">
<path d="M0.242188 1.70312H16.457V5.09375H10.3867V21.5H6.3125V5.09375H0.242188V1.70312ZM22.9648 21.5H18.918V1.70312H22.8555V9.25H23.0195C23.3659 8.36589 23.9173 7.68229 24.6738 7.19922C25.4303 6.70703 26.3555 6.46094 27.4492 6.46094C28.4792 6.46094 29.3815 6.68424 30.1562 7.13086C30.931 7.57747 31.528 8.22005 31.9473 9.05859C32.3757 9.89714 32.5898 10.8906 32.5898 12.0391V21.5H28.543V12.75C28.543 11.8294 28.306 11.1139 27.832 10.6035C27.3672 10.084 26.7109 9.82422 25.8633 9.82422C25.2982 9.82422 24.7969 9.94727 24.3594 10.1934C23.9219 10.4303 23.5801 10.7812 23.334 11.2461C23.0879 11.7109 22.9648 12.2669 22.9648 12.9141V21.5ZM35.707 6.65234H39.7539V21.5H35.707V6.65234ZM37.7305 4.71094C37.3294 4.71094 36.9557 4.61979 36.6094 4.4375C36.2721 4.24609 36.0033 3.99544 35.8027 3.68555C35.6113 3.36654 35.5156 3.02474 35.5156 2.66016C35.5156 2.28646 35.6113 1.9401 35.8027 1.62109C36.0033 1.30208 36.2721 1.05143 36.6094 0.869141C36.9557 0.677734 37.3294 0.582031 37.7305 0.582031C38.1224 0.582031 38.487 0.677734 38.8242 0.869141C39.1615 1.05143 39.4258 1.30208 39.6172 1.62109C39.8177 1.9401 39.918 2.28646 39.918 2.66016C39.918 3.02474 39.8177 3.36654 39.6172 3.68555C39.4258 3.99544 39.1615 4.24609 38.8242 4.4375C38.487 4.61979 38.1224 4.71094 37.7305 4.71094ZM46.9453 21.5H42.8984V6.65234H46.7539V9.25H46.918C47.2643 8.375 47.8249 7.69141 48.5996 7.19922C49.3743 6.70703 50.2995 6.46094 51.375 6.46094C52.4049 6.46094 53.3073 6.68424 54.082 7.13086C54.8568 7.57747 55.4538 8.22461 55.873 9.07227C56.2923 9.91081 56.4974 10.8997 56.4883 12.0391V21.5H52.4688V12.75C52.4688 11.8385 52.2318 11.123 51.7578 10.6035C51.2839 10.084 50.6276 9.82422 49.7891 9.82422C48.9232 9.82422 48.2305 10.0977 47.7109 10.6445C47.2005 11.1914 46.9453 11.9479 46.9453 12.9141V21.5ZM59.6328 1.70312H63.6797V12.3398H63.8984L68.7109 6.65234H73.3594L67.8223 13.0781L73.6602 21.5H68.9023L64.8145 15.457L63.6797 16.7422V21.5H59.6328V1.70312Z" fill="#7059FF"/>
</svg>
