<svg width="146" height="143" viewBox="0 0 146 143" fill="none" xmlns="http://www.w3.org/2000/svg">
<rect width="142.105" height="142.105" rx="71.0524" fill="#F1EEFF"/>
<rect x="102.494" y="95.7466" width="42.6314" height="42.6314" rx="21.3157" fill="#7059FF"/>
<path d="M123.81 108.542C124.093 108.542 124.364 108.66 124.564 108.868C124.764 109.076 124.876 109.359 124.876 109.654V115.951H130.916C131.198 115.951 131.469 116.068 131.669 116.276C131.869 116.485 131.981 116.767 131.981 117.062C131.981 117.357 131.869 117.639 131.669 117.848C131.469 118.056 131.198 118.173 130.916 118.173H124.876V124.47C124.876 124.765 124.764 125.048 124.564 125.256C124.364 125.465 124.093 125.582 123.81 125.582C123.528 125.582 123.257 125.465 123.057 125.256C122.857 125.048 122.745 124.765 122.745 124.47V118.173H116.705C116.422 118.173 116.151 118.056 115.951 117.848C115.752 117.639 115.639 117.357 115.639 117.062C115.639 116.767 115.752 116.485 115.951 116.276C116.151 116.068 116.422 115.951 116.705 115.951H122.745V109.654C122.745 109.359 122.857 109.076 123.057 108.868C123.257 108.66 123.528 108.542 123.81 108.542Z" fill="white"/>
<path d="M72.125 69.9741C68.505 69.9741 65.4125 68.6562 62.8475 66.0205C60.2825 63.3854 59 60.2076 59 56.4871C59 52.7672 60.2825 49.5894 62.8475 46.9536C65.4125 44.3179 68.505 43 72.125 43C75.745 43 78.8375 44.3179 81.4025 46.9536C83.9675 49.5894 85.25 52.7672 85.25 56.4871C85.25 60.2076 83.9675 63.3854 81.4025 66.0205C78.8375 68.6562 75.745 69.9741 72.125 69.9741ZM44 93.4657V90.7528C44 88.8659 44.4988 87.1184 45.4963 85.5102C46.4938 83.9021 47.8269 82.6657 49.4956 81.8013C53.2019 79.9343 56.9409 78.5339 60.7128 77.6001C64.4847 76.6662 68.2887 76.1993 72.125 76.1993C75.9613 76.1993 79.7653 76.6662 83.5372 77.6001C87.3091 78.5339 91.0481 79.9343 94.7544 81.8013C96.4231 82.6657 97.7562 83.9021 98.7537 85.5102C99.7512 87.1184 100.25 88.8659 100.25 90.7528V93.4657C100.25 95.0905 99.6959 96.4726 98.5878 97.612C97.4797 98.7507 96.1347 99.32 94.5528 99.32H49.6972C48.1153 99.32 46.7703 98.7507 45.6622 97.612C44.5541 96.4726 44 95.0905 44 93.4657Z" fill="#1E1E1E"/>
</svg>
